<svg width="220" height="67" viewBox="0 0 220 67" fill="none" xmlns="http://www.w3.org/2000/svg">
<path d="M81.87 21.281H74.478C74.236 22.095 73.972 22.942 73.686 23.822C73.422 24.702 73.202 25.428 73.026 26C72.806 26.088 72.564 26.165 72.3 26.231C72.058 26.297 71.75 26.33 71.376 26.33C70.628 26.33 70.045 26.187 69.627 25.901C69.209 25.593 69 25.164 69 24.614C69 24.35 69.033 24.097 69.099 23.855C69.187 23.591 69.286 23.294 69.396 22.964C69.572 22.348 69.803 21.611 70.089 20.753C70.397 19.873 70.716 18.927 71.046 17.915C71.398 16.881 71.772 15.825 72.168 14.747C72.564 13.647 72.938 12.591 73.29 11.579C73.664 10.545 74.016 9.58801 74.346 8.70801C74.698 7.80601 74.995 7.03601 75.237 6.39801C75.523 6.24401 75.941 6.09001 76.491 5.93601C77.063 5.78201 77.635 5.70501 78.207 5.70501C78.977 5.70501 79.681 5.82601 80.319 6.06801C80.957 6.28801 81.364 6.65101 81.54 7.15701C81.98 8.36701 82.464 9.76401 82.992 11.348C83.52 12.91 84.048 14.527 84.576 16.199C85.126 17.871 85.654 19.51 86.16 21.116C86.666 22.722 87.117 24.163 87.513 25.439C87.293 25.681 86.985 25.879 86.589 26.033C86.215 26.209 85.764 26.297 85.236 26.297C84.466 26.297 83.916 26.165 83.586 25.901C83.278 25.615 83.036 25.175 82.86 24.581L81.87 21.281ZM78.174 9.46701C77.976 10.017 77.756 10.633 77.514 11.315C77.294 11.997 77.052 12.712 76.788 13.46C76.546 14.186 76.293 14.934 76.029 15.704C75.765 16.452 75.512 17.189 75.27 17.915H81.012L78.339 9.46701H78.174Z" fill="white"/>
<path d="M100.266 24.647C99.8265 24.867 99.3095 25.054 98.7155 25.208C98.1435 25.362 97.4725 25.439 96.7025 25.439C95.7125 25.439 94.7775 25.307 93.8975 25.043C93.0175 24.757 92.2475 24.306 91.5875 23.69C90.9275 23.074 90.3995 22.282 90.0035 21.314C89.6295 20.324 89.4425 19.125 89.4425 17.717C89.4425 16.441 89.6295 15.319 90.0035 14.351C90.3995 13.361 90.9495 12.536 91.6535 11.876C92.3795 11.216 93.2375 10.721 94.2275 10.391C95.2175 10.061 96.3175 9.89601 97.5275 9.89601C98.6715 9.89601 99.7165 10.039 100.662 10.325C101.63 10.611 102.4 10.941 102.972 11.315C103.368 11.579 103.676 11.876 103.896 12.206C104.138 12.536 104.259 12.954 104.259 13.46V26.198C104.259 27.32 104.05 28.288 103.632 29.102C103.236 29.916 102.686 30.576 101.982 31.082C101.278 31.61 100.453 31.995 99.5075 32.237C98.5615 32.479 97.5385 32.6 96.4385 32.6C95.2945 32.6 94.2935 32.49 93.4355 32.27C92.5995 32.072 91.9725 31.841 91.5545 31.577C90.8285 31.115 90.4655 30.499 90.4655 29.729C90.4655 29.311 90.5535 28.948 90.7295 28.64C90.9055 28.332 91.1145 28.101 91.3565 27.947C91.9285 28.299 92.6215 28.607 93.4355 28.871C94.2495 29.135 95.1185 29.267 96.0425 29.267C97.3625 29.267 98.3965 29.014 99.1445 28.508C99.8925 28.002 100.266 27.188 100.266 26.066V24.647ZM97.3955 22.205C98.0335 22.205 98.5725 22.117 99.0125 21.941C99.4745 21.765 99.8705 21.556 100.2 21.314V13.856C99.8925 13.68 99.5295 13.526 99.1115 13.394C98.7155 13.262 98.2315 13.196 97.6595 13.196C96.4495 13.196 95.4705 13.57 94.7225 14.318C93.9965 15.044 93.6335 16.177 93.6335 17.717C93.6335 18.553 93.7215 19.257 93.8975 19.829C94.0955 20.401 94.3595 20.863 94.6895 21.215C95.0415 21.567 95.4485 21.82 95.9105 21.974C96.3725 22.128 96.8675 22.205 97.3955 22.205Z" fill="white"/>
<path d="M111.776 20.06C112.084 21.182 112.656 21.996 113.492 22.502C114.328 23.008 115.362 23.261 116.594 23.261C117.518 23.261 118.365 23.129 119.135 22.865C119.927 22.579 120.565 22.282 121.049 21.974C121.357 22.15 121.61 22.392 121.808 22.7C122.006 23.008 122.105 23.338 122.105 23.69C122.105 24.13 121.951 24.526 121.643 24.878C121.357 25.208 120.95 25.494 120.422 25.736C119.916 25.978 119.311 26.165 118.607 26.297C117.903 26.429 117.144 26.495 116.33 26.495C115.032 26.495 113.844 26.319 112.766 25.967C111.71 25.615 110.797 25.087 110.027 24.383C109.279 23.657 108.685 22.766 108.245 21.71C107.827 20.654 107.618 19.422 107.618 18.014C107.618 16.65 107.827 15.462 108.245 14.45C108.663 13.438 109.224 12.591 109.928 11.909C110.654 11.227 111.49 10.721 112.436 10.391C113.382 10.061 114.383 9.89601 115.439 9.89601C116.517 9.89601 117.507 10.072 118.409 10.424C119.311 10.754 120.081 11.227 120.719 11.843C121.357 12.437 121.852 13.163 122.204 14.021C122.578 14.857 122.765 15.77 122.765 16.76C122.765 17.376 122.6 17.838 122.27 18.146C121.962 18.454 121.522 18.652 120.95 18.74L111.776 20.06ZM115.439 13.031C114.361 13.031 113.459 13.394 112.733 14.12C112.007 14.824 111.6 15.836 111.512 17.156L118.838 16.067C118.75 15.253 118.431 14.549 117.881 13.955C117.331 13.339 116.517 13.031 115.439 13.031Z" fill="white"/>
<path d="M136.367 15.935C136.367 14.989 136.092 14.296 135.542 13.856C135.014 13.416 134.288 13.196 133.364 13.196C132.726 13.196 132.132 13.273 131.582 13.427C131.054 13.581 130.592 13.779 130.196 14.021V25.967C129.998 26.011 129.734 26.066 129.404 26.132C129.074 26.198 128.7 26.231 128.282 26.231C127.512 26.231 126.94 26.088 126.566 25.802C126.192 25.516 126.005 25.01 126.005 24.284V13.691C126.005 13.163 126.115 12.734 126.335 12.404C126.555 12.074 126.896 11.755 127.358 11.447C127.996 11.007 128.843 10.644 129.899 10.358C130.955 10.05 132.121 9.89601 133.397 9.89601C135.663 9.89601 137.412 10.402 138.644 11.414C139.898 12.404 140.525 13.867 140.525 15.803V25.967C140.349 26.011 140.085 26.066 139.733 26.132C139.403 26.198 139.04 26.231 138.644 26.231C137.852 26.231 137.269 26.088 136.895 25.802C136.543 25.516 136.367 25.01 136.367 24.284V15.935Z" fill="white"/>
<path d="M159.216 22.964C159.216 23.47 159.106 23.877 158.886 24.185C158.666 24.493 158.336 24.79 157.896 25.076C157.346 25.428 156.62 25.747 155.718 26.033C154.816 26.341 153.771 26.495 152.583 26.495C149.943 26.495 147.842 25.824 146.28 24.482C144.74 23.118 143.97 21.039 143.97 18.245C143.97 16.793 144.179 15.55 144.597 14.516C145.015 13.46 145.576 12.591 146.28 11.909C147.006 11.227 147.853 10.721 148.821 10.391C149.789 10.061 150.834 9.89601 151.956 9.89601C152.55 9.89601 153.111 9.96201 153.639 10.094C154.167 10.204 154.64 10.347 155.058 10.523V4.55001C155.234 4.48401 155.487 4.42901 155.817 4.38501C156.169 4.31901 156.543 4.28601 156.939 4.28601C157.731 4.28601 158.303 4.42901 158.655 4.71501C159.029 5.00101 159.216 5.50701 159.216 6.23301V22.964ZM155.058 13.889C154.728 13.691 154.343 13.526 153.903 13.394C153.463 13.262 152.99 13.196 152.484 13.196C151.252 13.196 150.229 13.592 149.415 14.384C148.601 15.176 148.194 16.474 148.194 18.278C148.194 19.972 148.579 21.215 149.349 22.007C150.141 22.777 151.208 23.162 152.55 23.162C153.122 23.162 153.606 23.096 154.002 22.964C154.42 22.832 154.772 22.678 155.058 22.502V13.889Z" fill="white"/>
<path d="M169.623 23.327C170.261 23.327 170.844 23.272 171.372 23.162C171.9 23.03 172.285 22.876 172.527 22.7V19.037L169.326 19.334C168.446 19.422 167.775 19.62 167.313 19.928C166.851 20.214 166.62 20.676 166.62 21.314C166.62 21.952 166.851 22.447 167.313 22.799C167.797 23.151 168.567 23.327 169.623 23.327ZM169.491 9.89601C171.647 9.89601 173.363 10.358 174.639 11.282C175.937 12.206 176.586 13.636 176.586 15.572V23.195C176.586 23.723 176.454 24.141 176.19 24.449C175.926 24.757 175.596 25.032 175.2 25.274C174.584 25.648 173.803 25.945 172.857 26.165C171.911 26.385 170.833 26.495 169.623 26.495C167.423 26.495 165.685 26.077 164.409 25.241C163.155 24.383 162.528 23.107 162.528 21.413C162.528 19.939 162.99 18.817 163.914 18.047C164.86 17.255 166.224 16.771 168.006 16.595L172.527 16.133V15.539C172.527 14.703 172.219 14.087 171.603 13.691C171.009 13.295 170.162 13.097 169.062 13.097C168.204 13.097 167.368 13.207 166.554 13.427C165.74 13.625 165.014 13.878 164.376 14.186C164.134 14.01 163.925 13.779 163.749 13.493C163.595 13.185 163.518 12.855 163.518 12.503C163.518 12.063 163.617 11.711 163.815 11.447C164.035 11.161 164.376 10.908 164.838 10.688C165.476 10.424 166.202 10.226 167.016 10.094C167.83 9.96201 168.655 9.89601 169.491 9.89601Z" fill="white"/>
<path d="M96.968 51.016C96.968 53.408 96.6153 55.524 95.91 57.364C95.2047 59.204 94.2233 60.7527 92.966 62.01C91.7393 63.2367 90.2673 64.172 88.55 64.816C86.8327 65.4293 84.9773 65.736 82.984 65.736C80.9907 65.736 79.1353 65.4293 77.418 64.816C75.7007 64.172 74.2133 63.2367 72.956 62.01C71.7293 60.7527 70.7633 59.204 70.058 57.364C69.3527 55.524 69 53.408 69 51.016C69 48.624 69.3527 46.5233 70.058 44.714C70.794 42.874 71.7907 41.3407 73.048 40.114C74.3053 38.8567 75.7773 37.9213 77.464 37.308C79.1813 36.664 81.0213 36.342 82.984 36.342C84.9467 36.342 86.7713 36.664 88.458 37.308C90.1753 37.9213 91.6627 38.8567 92.92 40.114C94.1773 41.3407 95.1587 42.874 95.864 44.714C96.6 46.5233 96.968 48.624 96.968 51.016ZM90.85 51.016C90.85 47.8267 90.1293 45.404 88.688 43.748C87.2773 42.0613 85.376 41.218 82.984 41.218C80.6227 41.218 78.7213 42.046 77.28 43.702C75.8693 45.358 75.164 47.796 75.164 51.016C75.164 54.236 75.8693 56.674 77.28 58.33C78.6907 59.986 80.592 60.814 82.984 60.814C85.376 60.814 87.2773 59.986 88.688 58.33C90.1293 56.674 90.85 54.236 90.85 51.016Z" fill="white"/>
<path d="M122.142 60.768C122.142 61.4733 121.989 62.0407 121.682 62.47C121.376 62.8993 120.916 63.3133 120.302 63.712C119.536 64.2027 118.524 64.6473 117.266 65.046C116.009 65.4753 114.552 65.69 112.896 65.69C109.216 65.69 106.288 64.7547 104.11 62.884C101.964 60.9827 100.89 58.0847 100.89 54.19C100.89 52.166 101.182 50.4333 101.764 48.992C102.347 47.52 103.129 46.3087 104.11 45.358C105.122 44.4073 106.303 43.702 107.652 43.242C109.002 42.782 110.458 42.552 112.022 42.552C112.85 42.552 113.632 42.644 114.368 42.828C115.104 42.9813 115.764 43.1807 116.346 43.426V35.1C116.592 35.008 116.944 34.9313 117.404 34.87C117.895 34.778 118.416 34.732 118.968 34.732C120.072 34.732 120.87 34.9313 121.36 35.33C121.882 35.7287 122.142 36.434 122.142 37.446V60.768ZM116.346 48.118C115.886 47.842 115.35 47.612 114.736 47.428C114.123 47.244 113.464 47.152 112.758 47.152C111.041 47.152 109.615 47.704 108.48 48.808C107.346 49.912 106.778 51.7213 106.778 54.236C106.778 56.5973 107.315 58.33 108.388 59.434C109.492 60.5073 110.98 61.044 112.85 61.044C113.648 61.044 114.322 60.952 114.874 60.768C115.457 60.584 115.948 60.3693 116.346 60.124V48.118Z" fill="white"/>
<path d="M149.53 54.098C149.53 55.8767 149.254 57.4867 148.702 58.928C148.18 60.3387 147.429 61.55 146.448 62.562C145.466 63.574 144.286 64.356 142.906 64.908C141.526 65.4293 139.977 65.69 138.26 65.69C136.542 65.69 134.994 65.4293 133.614 64.908C132.234 64.356 131.053 63.5893 130.072 62.608C129.09 61.596 128.324 60.3847 127.772 58.974C127.25 57.5327 126.99 55.9073 126.99 54.098C126.99 52.3193 127.25 50.7247 127.772 49.314C128.324 47.8727 129.09 46.6613 130.072 45.68C131.084 44.668 132.28 43.9013 133.66 43.38C135.04 42.828 136.573 42.552 138.26 42.552C139.946 42.552 141.48 42.828 142.86 43.38C144.24 43.9013 145.42 44.668 146.402 45.68C147.414 46.692 148.18 47.9187 148.702 49.36C149.254 50.7707 149.53 52.35 149.53 54.098ZM138.26 47.152C136.604 47.152 135.3 47.7653 134.35 48.992C133.399 50.188 132.924 51.89 132.924 54.098C132.924 56.3367 133.384 58.054 134.304 59.25C135.255 60.446 136.573 61.044 138.26 61.044C139.946 61.044 141.25 60.446 142.17 59.25C143.12 58.0233 143.596 56.306 143.596 54.098C143.596 51.89 143.12 50.188 142.17 48.992C141.219 47.7653 139.916 47.152 138.26 47.152Z" fill="white"/>
<path d="M168.726 50.97C168.726 49.6513 168.343 48.6853 167.576 48.072C166.84 47.4587 165.828 47.152 164.54 47.152C163.651 47.152 162.823 47.2593 162.056 47.474C161.32 47.6887 160.676 47.9647 160.124 48.302V64.954C159.848 65.0153 159.48 65.092 159.02 65.184C158.56 65.276 158.039 65.322 157.456 65.322C156.383 65.322 155.586 65.1227 155.064 64.724C154.543 64.3253 154.282 63.62 154.282 62.608V47.842C154.282 47.106 154.436 46.508 154.742 46.048C155.049 45.588 155.524 45.1433 156.168 44.714C157.058 44.1007 158.238 43.5947 159.71 43.196C161.182 42.7667 162.808 42.552 164.586 42.552C167.745 42.552 170.183 43.2573 171.9 44.668C173.648 46.048 174.522 48.0873 174.522 50.786V64.954C174.277 65.0153 173.909 65.092 173.418 65.184C172.958 65.276 172.452 65.322 171.9 65.322C170.796 65.322 169.984 65.1227 169.462 64.724C168.972 64.3253 168.726 63.62 168.726 62.608V50.97Z" fill="white"/>
<path d="M186.224 58.238C186.224 59.2193 186.515 59.9247 187.098 60.354C187.711 60.7833 188.554 60.998 189.628 60.998C190.149 60.998 190.67 60.9367 191.192 60.814C191.744 60.6913 192.234 60.538 192.664 60.354C192.909 60.5993 193.108 60.906 193.262 61.274C193.446 61.6113 193.538 62.01 193.538 62.47C193.538 63.39 193.124 64.1567 192.296 64.77C191.468 65.3527 190.134 65.644 188.294 65.644C185.871 65.644 183.954 65.1073 182.544 64.034C181.164 62.93 180.474 61.1207 180.474 58.606V37.492C180.719 37.4307 181.072 37.354 181.532 37.262C182.022 37.17 182.544 37.124 183.096 37.124C184.169 37.124 184.951 37.3233 185.442 37.722C185.963 38.1207 186.224 38.826 186.224 39.838V43.656H192.986C193.139 43.9013 193.277 44.2233 193.4 44.622C193.522 45.0207 193.584 45.45 193.584 45.91C193.584 46.7073 193.4 47.29 193.032 47.658C192.664 48.026 192.173 48.21 191.56 48.21H186.224V58.238Z" fill="white"/>
<path d="M219.159 54.098C219.159 55.8767 218.883 57.4867 218.331 58.928C217.809 60.3387 217.058 61.55 216.077 62.562C215.095 63.574 213.915 64.356 212.535 64.908C211.155 65.4293 209.606 65.69 207.889 65.69C206.171 65.69 204.623 65.4293 203.243 64.908C201.863 64.356 200.682 63.5893 199.701 62.608C198.719 61.596 197.953 60.3847 197.401 58.974C196.879 57.5327 196.619 55.9073 196.619 54.098C196.619 52.3193 196.879 50.7247 197.401 49.314C197.953 47.8727 198.719 46.6613 199.701 45.68C200.713 44.668 201.909 43.9013 203.289 43.38C204.669 42.828 206.202 42.552 207.889 42.552C209.575 42.552 211.109 42.828 212.489 43.38C213.869 43.9013 215.049 44.668 216.031 45.68C217.043 46.692 217.809 47.9187 218.331 49.36C218.883 50.7707 219.159 52.35 219.159 54.098ZM207.889 47.152C206.233 47.152 204.929 47.7653 203.979 48.992C203.028 50.188 202.553 51.89 202.553 54.098C202.553 56.3367 203.013 58.054 203.933 59.25C204.883 60.446 206.202 61.044 207.889 61.044C209.575 61.044 210.879 60.446 211.799 59.25C212.749 58.0233 213.225 56.306 213.225 54.098C213.225 51.89 212.749 50.188 211.799 48.992C210.848 47.7653 209.545 47.152 207.889 47.152Z" fill="white"/>
<path d="M54.584 47.672H64.628C64.8347 48.0027 65 48.4367 65.124 48.974C65.2893 49.5113 65.372 50.09 65.372 50.71C65.372 51.826 65.1033 52.6527 64.566 53.19C64.0286 53.686 63.3053 53.934 62.396 53.934H54.584V65.218C54.2533 65.342 53.778 65.466 53.158 65.59C52.538 65.6727 51.918 65.714 51.298 65.714C50.0166 65.714 49.0453 65.4867 48.384 65.032C47.764 64.536 47.454 63.606 47.454 62.242V53.934H37.224C37.0173 53.562 36.8313 53.128 36.666 52.632C36.542 52.0947 36.48 51.516 36.48 50.896C36.48 49.78 36.7486 48.974 37.286 48.478C37.8233 47.9407 38.5673 47.672 39.518 47.672H47.454V36.574C47.826 36.45 48.322 36.3467 48.942 36.264C49.562 36.14 50.182 36.078 50.802 36.078C52.042 36.078 52.972 36.326 53.592 36.822C54.2533 37.2767 54.584 38.186 54.584 39.55V47.672Z" fill="white"/>
<path d="M46.5625 5.14062H43.8203V3.07031C43.8203 1.92688 42.8759 1 41.7109 1C40.5459 1 39.6016 1.92688 39.6016 3.07031V5.14062H30.0039V3.07031C30.0039 1.92688 29.0595 1 27.8945 1C26.7295 1 25.7852 1.92688 25.7852 3.07031V5.14062H16.293V3.07031C16.293 1.92688 15.3486 1 14.1836 1C13.0186 1 12.0742 1.92688 12.0742 3.07031V5.14062H9.4375C4.78506 5.14062 1 8.85559 1 13.4219V45.7188C1 50.285 4.78506 54 9.4375 54H27.0542C28.2192 54 29.1636 53.0731 29.1636 51.9297C29.1636 50.7863 28.2192 49.8594 27.0542 49.8594H9.4375C7.11128 49.8594 5.21875 48.0019 5.21875 45.7188V13.4219C5.21875 11.1387 7.11128 9.28125 9.4375 9.28125H12.0742V11.3516C12.0742 12.495 13.0186 13.4219 14.1836 13.4219C15.3486 13.4219 16.293 12.495 16.293 11.3516V9.28125H25.7852V11.3516C25.7852 12.495 26.7295 13.4219 27.8945 13.4219C29.0595 13.4219 30.0039 12.495 30.0039 11.3516V9.28125H39.6016V11.3516C39.6016 12.495 40.5459 13.4219 41.7109 13.4219C42.8759 13.4219 43.8203 12.495 43.8203 11.3516V9.28125H46.5625C48.8887 9.28125 50.7813 11.1387 50.7813 13.4219V26.7125C50.7813 27.8559 51.7256 28.7828 52.8906 28.7828C54.0556 28.7828 55 27.8559 55 26.7125V13.4219C55 8.85559 51.2149 5.14062 46.5625 5.14062Z" fill="white"/>
<path d="M29.4145 20.6604C28.5156 21.1264 27.4422 21.1263 26.5434 20.6604C22.6595 18.6469 18 21.4836 18 25.8602C18 28.6145 20.2834 40 23.8535 40C25.1058 40 26.2455 38.7225 27.3378 36.0944C27.5739 35.5263 28.384 35.5261 28.6202 36.0944C29.7125 38.7225 30.8521 40 32.1045 40C35.6396 40 37.958 28.7021 37.958 25.8602C37.9579 21.4851 33.3 18.646 29.4145 20.6604ZM32.1044 38.9578C31.3637 38.9578 30.4446 37.7684 29.5827 35.6944C28.9904 34.2694 26.9678 34.2687 26.3753 35.6944C25.5134 37.7683 24.5942 38.9578 23.8535 38.9578C21.5705 38.9578 19.0423 29.0945 19.0423 25.8603C19.0423 22.2591 22.8766 19.9336 26.0637 21.5858C27.263 22.2075 28.695 22.2075 29.8943 21.5858C33.0781 19.9352 36.9155 22.2557 36.9155 25.8603C36.9156 29.0806 34.3891 38.9578 32.1044 38.9578Z" fill="white"/>
<path d="M24.8535 23.4388C22.967 23.4388 21.4321 24.9736 21.4321 26.8602C21.4321 27.1481 21.6654 27.3813 21.9532 27.3813C22.241 27.3813 22.4744 27.1481 22.4744 26.8602C22.4744 25.5484 23.5416 24.4812 24.8535 24.4812C25.1413 24.4812 25.3747 24.2479 25.3747 23.96C25.3747 23.6721 25.1413 23.4388 24.8535 23.4388Z" fill="white"/>
<path d="M81.87 21.281H74.478C74.236 22.095 73.972 22.942 73.686 23.822C73.422 24.702 73.202 25.428 73.026 26C72.806 26.088 72.564 26.165 72.3 26.231C72.058 26.297 71.75 26.33 71.376 26.33C70.628 26.33 70.045 26.187 69.627 25.901C69.209 25.593 69 25.164 69 24.614C69 24.35 69.033 24.097 69.099 23.855C69.187 23.591 69.286 23.294 69.396 22.964C69.572 22.348 69.803 21.611 70.089 20.753C70.397 19.873 70.716 18.927 71.046 17.915C71.398 16.881 71.772 15.825 72.168 14.747C72.564 13.647 72.938 12.591 73.29 11.579C73.664 10.545 74.016 9.58801 74.346 8.70801C74.698 7.80601 74.995 7.03601 75.237 6.39801C75.523 6.24401 75.941 6.09001 76.491 5.93601C77.063 5.78201 77.635 5.70501 78.207 5.70501C78.977 5.70501 79.681 5.82601 80.319 6.06801C80.957 6.28801 81.364 6.65101 81.54 7.15701C81.98 8.36701 82.464 9.76401 82.992 11.348C83.52 12.91 84.048 14.527 84.576 16.199C85.126 17.871 85.654 19.51 86.16 21.116C86.666 22.722 87.117 24.163 87.513 25.439C87.293 25.681 86.985 25.879 86.589 26.033C86.215 26.209 85.764 26.297 85.236 26.297C84.466 26.297 83.916 26.165 83.586 25.901C83.278 25.615 83.036 25.175 82.86 24.581L81.87 21.281ZM78.174 9.46701C77.976 10.017 77.756 10.633 77.514 11.315C77.294 11.997 77.052 12.712 76.788 13.46C76.546 14.186 76.293 14.934 76.029 15.704C75.765 16.452 75.512 17.189 75.27 17.915H81.012L78.339 9.46701H78.174Z" stroke="white"/>
<path d="M100.266 24.647C99.8265 24.867 99.3095 25.054 98.7155 25.208C98.1435 25.362 97.4725 25.439 96.7025 25.439C95.7125 25.439 94.7775 25.307 93.8975 25.043C93.0175 24.757 92.2475 24.306 91.5875 23.69C90.9275 23.074 90.3995 22.282 90.0035 21.314C89.6295 20.324 89.4425 19.125 89.4425 17.717C89.4425 16.441 89.6295 15.319 90.0035 14.351C90.3995 13.361 90.9495 12.536 91.6535 11.876C92.3795 11.216 93.2375 10.721 94.2275 10.391C95.2175 10.061 96.3175 9.89601 97.5275 9.89601C98.6715 9.89601 99.7165 10.039 100.662 10.325C101.63 10.611 102.4 10.941 102.972 11.315C103.368 11.579 103.676 11.876 103.896 12.206C104.138 12.536 104.259 12.954 104.259 13.46V26.198C104.259 27.32 104.05 28.288 103.632 29.102C103.236 29.916 102.686 30.576 101.982 31.082C101.278 31.61 100.453 31.995 99.5075 32.237C98.5615 32.479 97.5385 32.6 96.4385 32.6C95.2945 32.6 94.2935 32.49 93.4355 32.27C92.5995 32.072 91.9725 31.841 91.5545 31.577C90.8285 31.115 90.4655 30.499 90.4655 29.729C90.4655 29.311 90.5535 28.948 90.7295 28.64C90.9055 28.332 91.1145 28.101 91.3565 27.947C91.9285 28.299 92.6215 28.607 93.4355 28.871C94.2495 29.135 95.1185 29.267 96.0425 29.267C97.3625 29.267 98.3965 29.014 99.1445 28.508C99.8925 28.002 100.266 27.188 100.266 26.066V24.647ZM97.3955 22.205C98.0335 22.205 98.5725 22.117 99.0125 21.941C99.4745 21.765 99.8705 21.556 100.2 21.314V13.856C99.8925 13.68 99.5295 13.526 99.1115 13.394C98.7155 13.262 98.2315 13.196 97.6595 13.196C96.4495 13.196 95.4705 13.57 94.7225 14.318C93.9965 15.044 93.6335 16.177 93.6335 17.717C93.6335 18.553 93.7215 19.257 93.8975 19.829C94.0955 20.401 94.3595 20.863 94.6895 21.215C95.0415 21.567 95.4485 21.82 95.9105 21.974C96.3725 22.128 96.8675 22.205 97.3955 22.205Z" stroke="white"/>
<path d="M111.776 20.06C112.084 21.182 112.656 21.996 113.492 22.502C114.328 23.008 115.362 23.261 116.594 23.261C117.518 23.261 118.365 23.129 119.135 22.865C119.927 22.579 120.565 22.282 121.049 21.974C121.357 22.15 121.61 22.392 121.808 22.7C122.006 23.008 122.105 23.338 122.105 23.69C122.105 24.13 121.951 24.526 121.643 24.878C121.357 25.208 120.95 25.494 120.422 25.736C119.916 25.978 119.311 26.165 118.607 26.297C117.903 26.429 117.144 26.495 116.33 26.495C115.032 26.495 113.844 26.319 112.766 25.967C111.71 25.615 110.797 25.087 110.027 24.383C109.279 23.657 108.685 22.766 108.245 21.71C107.827 20.654 107.618 19.422 107.618 18.014C107.618 16.65 107.827 15.462 108.245 14.45C108.663 13.438 109.224 12.591 109.928 11.909C110.654 11.227 111.49 10.721 112.436 10.391C113.382 10.061 114.383 9.89601 115.439 9.89601C116.517 9.89601 117.507 10.072 118.409 10.424C119.311 10.754 120.081 11.227 120.719 11.843C121.357 12.437 121.852 13.163 122.204 14.021C122.578 14.857 122.765 15.77 122.765 16.76C122.765 17.376 122.6 17.838 122.27 18.146C121.962 18.454 121.522 18.652 120.95 18.74L111.776 20.06ZM115.439 13.031C114.361 13.031 113.459 13.394 112.733 14.12C112.007 14.824 111.6 15.836 111.512 17.156L118.838 16.067C118.75 15.253 118.431 14.549 117.881 13.955C117.331 13.339 116.517 13.031 115.439 13.031Z" stroke="white"/>
<path d="M136.367 15.935C136.367 14.989 136.092 14.296 135.542 13.856C135.014 13.416 134.288 13.196 133.364 13.196C132.726 13.196 132.132 13.273 131.582 13.427C131.054 13.581 130.592 13.779 130.196 14.021V25.967C129.998 26.011 129.734 26.066 129.404 26.132C129.074 26.198 128.7 26.231 128.282 26.231C127.512 26.231 126.94 26.088 126.566 25.802C126.192 25.516 126.005 25.01 126.005 24.284V13.691C126.005 13.163 126.115 12.734 126.335 12.404C126.555 12.074 126.896 11.755 127.358 11.447C127.996 11.007 128.843 10.644 129.899 10.358C130.955 10.05 132.121 9.89601 133.397 9.89601C135.663 9.89601 137.412 10.402 138.644 11.414C139.898 12.404 140.525 13.867 140.525 15.803V25.967C140.349 26.011 140.085 26.066 139.733 26.132C139.403 26.198 139.04 26.231 138.644 26.231C137.852 26.231 137.269 26.088 136.895 25.802C136.543 25.516 136.367 25.01 136.367 24.284V15.935Z" stroke="white"/>
<path d="M159.216 22.964C159.216 23.47 159.106 23.877 158.886 24.185C158.666 24.493 158.336 24.79 157.896 25.076C157.346 25.428 156.62 25.747 155.718 26.033C154.816 26.341 153.771 26.495 152.583 26.495C149.943 26.495 147.842 25.824 146.28 24.482C144.74 23.118 143.97 21.039 143.97 18.245C143.97 16.793 144.179 15.55 144.597 14.516C145.015 13.46 145.576 12.591 146.28 11.909C147.006 11.227 147.853 10.721 148.821 10.391C149.789 10.061 150.834 9.89601 151.956 9.89601C152.55 9.89601 153.111 9.96201 153.639 10.094C154.167 10.204 154.64 10.347 155.058 10.523V4.55001C155.234 4.48401 155.487 4.42901 155.817 4.38501C156.169 4.31901 156.543 4.28601 156.939 4.28601C157.731 4.28601 158.303 4.42901 158.655 4.71501C159.029 5.00101 159.216 5.50701 159.216 6.23301V22.964ZM155.058 13.889C154.728 13.691 154.343 13.526 153.903 13.394C153.463 13.262 152.99 13.196 152.484 13.196C151.252 13.196 150.229 13.592 149.415 14.384C148.601 15.176 148.194 16.474 148.194 18.278C148.194 19.972 148.579 21.215 149.349 22.007C150.141 22.777 151.208 23.162 152.55 23.162C153.122 23.162 153.606 23.096 154.002 22.964C154.42 22.832 154.772 22.678 155.058 22.502V13.889Z" stroke="white"/>
<path d="M169.623 23.327C170.261 23.327 170.844 23.272 171.372 23.162C171.9 23.03 172.285 22.876 172.527 22.7V19.037L169.326 19.334C168.446 19.422 167.775 19.62 167.313 19.928C166.851 20.214 166.62 20.676 166.62 21.314C166.62 21.952 166.851 22.447 167.313 22.799C167.797 23.151 168.567 23.327 169.623 23.327ZM169.491 9.89601C171.647 9.89601 173.363 10.358 174.639 11.282C175.937 12.206 176.586 13.636 176.586 15.572V23.195C176.586 23.723 176.454 24.141 176.19 24.449C175.926 24.757 175.596 25.032 175.2 25.274C174.584 25.648 173.803 25.945 172.857 26.165C171.911 26.385 170.833 26.495 169.623 26.495C167.423 26.495 165.685 26.077 164.409 25.241C163.155 24.383 162.528 23.107 162.528 21.413C162.528 19.939 162.99 18.817 163.914 18.047C164.86 17.255 166.224 16.771 168.006 16.595L172.527 16.133V15.539C172.527 14.703 172.219 14.087 171.603 13.691C171.009 13.295 170.162 13.097 169.062 13.097C168.204 13.097 167.368 13.207 166.554 13.427C165.74 13.625 165.014 13.878 164.376 14.186C164.134 14.01 163.925 13.779 163.749 13.493C163.595 13.185 163.518 12.855 163.518 12.503C163.518 12.063 163.617 11.711 163.815 11.447C164.035 11.161 164.376 10.908 164.838 10.688C165.476 10.424 166.202 10.226 167.016 10.094C167.83 9.96201 168.655 9.89601 169.491 9.89601Z" stroke="white"/>
<path d="M96.968 51.016C96.968 53.408 96.6153 55.524 95.91 57.364C95.2047 59.204 94.2233 60.7527 92.966 62.01C91.7393 63.2367 90.2673 64.172 88.55 64.816C86.8327 65.4293 84.9773 65.736 82.984 65.736C80.9907 65.736 79.1353 65.4293 77.418 64.816C75.7007 64.172 74.2133 63.2367 72.956 62.01C71.7293 60.7527 70.7633 59.204 70.058 57.364C69.3527 55.524 69 53.408 69 51.016C69 48.624 69.3527 46.5233 70.058 44.714C70.794 42.874 71.7907 41.3407 73.048 40.114C74.3053 38.8567 75.7773 37.9213 77.464 37.308C79.1813 36.664 81.0213 36.342 82.984 36.342C84.9467 36.342 86.7713 36.664 88.458 37.308C90.1753 37.9213 91.6627 38.8567 92.92 40.114C94.1773 41.3407 95.1587 42.874 95.864 44.714C96.6 46.5233 96.968 48.624 96.968 51.016ZM90.85 51.016C90.85 47.8267 90.1293 45.404 88.688 43.748C87.2773 42.0613 85.376 41.218 82.984 41.218C80.6227 41.218 78.7213 42.046 77.28 43.702C75.8693 45.358 75.164 47.796 75.164 51.016C75.164 54.236 75.8693 56.674 77.28 58.33C78.6907 59.986 80.592 60.814 82.984 60.814C85.376 60.814 87.2773 59.986 88.688 58.33C90.1293 56.674 90.85 54.236 90.85 51.016Z" stroke="white"/>
<path d="M122.142 60.768C122.142 61.4733 121.989 62.0407 121.682 62.47C121.376 62.8993 120.916 63.3133 120.302 63.712C119.536 64.2027 118.524 64.6473 117.266 65.046C116.009 65.4753 114.552 65.69 112.896 65.69C109.216 65.69 106.288 64.7547 104.11 62.884C101.964 60.9827 100.89 58.0847 100.89 54.19C100.89 52.166 101.182 50.4333 101.764 48.992C102.347 47.52 103.129 46.3087 104.11 45.358C105.122 44.4073 106.303 43.702 107.652 43.242C109.002 42.782 110.458 42.552 112.022 42.552C112.85 42.552 113.632 42.644 114.368 42.828C115.104 42.9813 115.764 43.1807 116.346 43.426V35.1C116.592 35.008 116.944 34.9313 117.404 34.87C117.895 34.778 118.416 34.732 118.968 34.732C120.072 34.732 120.87 34.9313 121.36 35.33C121.882 35.7287 122.142 36.434 122.142 37.446V60.768ZM116.346 48.118C115.886 47.842 115.35 47.612 114.736 47.428C114.123 47.244 113.464 47.152 112.758 47.152C111.041 47.152 109.615 47.704 108.48 48.808C107.346 49.912 106.778 51.7213 106.778 54.236C106.778 56.5973 107.315 58.33 108.388 59.434C109.492 60.5073 110.98 61.044 112.85 61.044C113.648 61.044 114.322 60.952 114.874 60.768C115.457 60.584 115.948 60.3693 116.346 60.124V48.118Z" stroke="white"/>
<path d="M149.53 54.098C149.53 55.8767 149.254 57.4867 148.702 58.928C148.18 60.3387 147.429 61.55 146.448 62.562C145.466 63.574 144.286 64.356 142.906 64.908C141.526 65.4293 139.977 65.69 138.26 65.69C136.542 65.69 134.994 65.4293 133.614 64.908C132.234 64.356 131.053 63.5893 130.072 62.608C129.09 61.596 128.324 60.3847 127.772 58.974C127.25 57.5327 126.99 55.9073 126.99 54.098C126.99 52.3193 127.25 50.7247 127.772 49.314C128.324 47.8727 129.09 46.6613 130.072 45.68C131.084 44.668 132.28 43.9013 133.66 43.38C135.04 42.828 136.573 42.552 138.26 42.552C139.946 42.552 141.48 42.828 142.86 43.38C144.24 43.9013 145.42 44.668 146.402 45.68C147.414 46.692 148.18 47.9187 148.702 49.36C149.254 50.7707 149.53 52.35 149.53 54.098ZM138.26 47.152C136.604 47.152 135.3 47.7653 134.35 48.992C133.399 50.188 132.924 51.89 132.924 54.098C132.924 56.3367 133.384 58.054 134.304 59.25C135.255 60.446 136.573 61.044 138.26 61.044C139.946 61.044 141.25 60.446 142.17 59.25C143.12 58.0233 143.596 56.306 143.596 54.098C143.596 51.89 143.12 50.188 142.17 48.992C141.219 47.7653 139.916 47.152 138.26 47.152Z" stroke="white"/>
<path d="M168.726 50.97C168.726 49.6513 168.343 48.6853 167.576 48.072C166.84 47.4587 165.828 47.152 164.54 47.152C163.651 47.152 162.823 47.2593 162.056 47.474C161.32 47.6887 160.676 47.9647 160.124 48.302V64.954C159.848 65.0153 159.48 65.092 159.02 65.184C158.56 65.276 158.039 65.322 157.456 65.322C156.383 65.322 155.586 65.1227 155.064 64.724C154.543 64.3253 154.282 63.62 154.282 62.608V47.842C154.282 47.106 154.436 46.508 154.742 46.048C155.049 45.588 155.524 45.1433 156.168 44.714C157.058 44.1007 158.238 43.5947 159.71 43.196C161.182 42.7667 162.808 42.552 164.586 42.552C167.745 42.552 170.183 43.2573 171.9 44.668C173.648 46.048 174.522 48.0873 174.522 50.786V64.954C174.277 65.0153 173.909 65.092 173.418 65.184C172.958 65.276 172.452 65.322 171.9 65.322C170.796 65.322 169.984 65.1227 169.462 64.724C168.972 64.3253 168.726 63.62 168.726 62.608V50.97Z" stroke="white"/>
<path d="M186.224 58.238C186.224 59.2193 186.515 59.9247 187.098 60.354C187.711 60.7833 188.554 60.998 189.628 60.998C190.149 60.998 190.67 60.9367 191.192 60.814C191.744 60.6913 192.234 60.538 192.664 60.354C192.909 60.5993 193.108 60.906 193.262 61.274C193.446 61.6113 193.538 62.01 193.538 62.47C193.538 63.39 193.124 64.1567 192.296 64.77C191.468 65.3527 190.134 65.644 188.294 65.644C185.871 65.644 183.954 65.1073 182.544 64.034C181.164 62.93 180.474 61.1207 180.474 58.606V37.492C180.719 37.4307 181.072 37.354 181.532 37.262C182.022 37.17 182.544 37.124 183.096 37.124C184.169 37.124 184.951 37.3233 185.442 37.722C185.963 38.1207 186.224 38.826 186.224 39.838V43.656H192.986C193.139 43.9013 193.277 44.2233 193.4 44.622C193.522 45.0207 193.584 45.45 193.584 45.91C193.584 46.7073 193.4 47.29 193.032 47.658C192.664 48.026 192.173 48.21 191.56 48.21H186.224V58.238Z" stroke="white"/>
<path d="M219.159 54.098C219.159 55.8767 218.883 57.4867 218.331 58.928C217.809 60.3387 217.058 61.55 216.077 62.562C215.095 63.574 213.915 64.356 212.535 64.908C211.155 65.4293 209.606 65.69 207.889 65.69C206.171 65.69 204.623 65.4293 203.243 64.908C201.863 64.356 200.682 63.5893 199.701 62.608C198.719 61.596 197.953 60.3847 197.401 58.974C196.879 57.5327 196.619 55.9073 196.619 54.098C196.619 52.3193 196.879 50.7247 197.401 49.314C197.953 47.8727 198.719 46.6613 199.701 45.68C200.713 44.668 201.909 43.9013 203.289 43.38C204.669 42.828 206.202 42.552 207.889 42.552C209.575 42.552 211.109 42.828 212.489 43.38C213.869 43.9013 215.049 44.668 216.031 45.68C217.043 46.692 217.809 47.9187 218.331 49.36C218.883 50.7707 219.159 52.35 219.159 54.098ZM207.889 47.152C206.233 47.152 204.929 47.7653 203.979 48.992C203.028 50.188 202.553 51.89 202.553 54.098C202.553 56.3367 203.013 58.054 203.933 59.25C204.883 60.446 206.202 61.044 207.889 61.044C209.575 61.044 210.879 60.446 211.799 59.25C212.749 58.0233 213.225 56.306 213.225 54.098C213.225 51.89 212.749 50.188 211.799 48.992C210.848 47.7653 209.545 47.152 207.889 47.152Z" stroke="white"/>
<path d="M54.584 47.672H64.628C64.8347 48.0027 65 48.4367 65.124 48.974C65.2893 49.5113 65.372 50.09 65.372 50.71C65.372 51.826 65.1033 52.6527 64.566 53.19C64.0286 53.686 63.3053 53.934 62.396 53.934H54.584V65.218C54.2533 65.342 53.778 65.466 53.158 65.59C52.538 65.6727 51.918 65.714 51.298 65.714C50.0166 65.714 49.0453 65.4867 48.384 65.032C47.764 64.536 47.454 63.606 47.454 62.242V53.934H37.224C37.0173 53.562 36.8313 53.128 36.666 52.632C36.542 52.0947 36.48 51.516 36.48 50.896C36.48 49.78 36.7486 48.974 37.286 48.478C37.8233 47.9407 38.5673 47.672 39.518 47.672H47.454V36.574C47.826 36.45 48.322 36.3467 48.942 36.264C49.562 36.14 50.182 36.078 50.802 36.078C52.042 36.078 52.972 36.326 53.592 36.822C54.2533 37.2767 54.584 38.186 54.584 39.55V47.672Z" stroke="white"/>
<path d="M46.5625 5.14062H43.8203V3.07031C43.8203 1.92688 42.8759 1 41.7109 1C40.5459 1 39.6016 1.92688 39.6016 3.07031V5.14062H30.0039V3.07031C30.0039 1.92688 29.0595 1 27.8945 1C26.7295 1 25.7852 1.92688 25.7852 3.07031V5.14062H16.293V3.07031C16.293 1.92688 15.3486 1 14.1836 1C13.0186 1 12.0742 1.92688 12.0742 3.07031V5.14062H9.4375C4.78506 5.14062 1 8.85559 1 13.4219V45.7188C1 50.285 4.78506 54 9.4375 54H27.0542C28.2192 54 29.1636 53.0731 29.1636 51.9297C29.1636 50.7863 28.2192 49.8594 27.0542 49.8594H9.4375C7.11128 49.8594 5.21875 48.0019 5.21875 45.7188V13.4219C5.21875 11.1387 7.11128 9.28125 9.4375 9.28125H12.0742V11.3516C12.0742 12.495 13.0186 13.4219 14.1836 13.4219C15.3486 13.4219 16.293 12.495 16.293 11.3516V9.28125H25.7852V11.3516C25.7852 12.495 26.7295 13.4219 27.8945 13.4219C29.0595 13.4219 30.0039 12.495 30.0039 11.3516V9.28125H39.6016V11.3516C39.6016 12.495 40.5459 13.4219 41.7109 13.4219C42.8759 13.4219 43.8203 12.495 43.8203 11.3516V9.28125H46.5625C48.8887 9.28125 50.7813 11.1387 50.7813 13.4219V26.7125C50.7813 27.8559 51.7256 28.7828 52.8906 28.7828C54.0556 28.7828 55 27.8559 55 26.7125V13.4219C55 8.85559 51.2149 5.14062 46.5625 5.14062Z" stroke="white"/>
<path d="M29.4145 20.6604C28.5156 21.1264 27.4422 21.1263 26.5434 20.6604C22.6595 18.6469 18 21.4836 18 25.8602C18 28.6145 20.2834 40 23.8535 40C25.1058 40 26.2455 38.7225 27.3378 36.0944C27.5739 35.5263 28.384 35.5261 28.6202 36.0944C29.7125 38.7225 30.8521 40 32.1045 40C35.6396 40 37.958 28.7021 37.958 25.8602C37.9579 21.4851 33.3 18.646 29.4145 20.6604ZM32.1044 38.9578C31.3637 38.9578 30.4446 37.7684 29.5827 35.6944C28.9904 34.2694 26.9678 34.2687 26.3753 35.6944C25.5134 37.7683 24.5942 38.9578 23.8535 38.9578C21.5705 38.9578 19.0423 29.0945 19.0423 25.8603C19.0423 22.2591 22.8766 19.9336 26.0637 21.5858C27.263 22.2075 28.695 22.2075 29.8943 21.5858C33.0781 19.9352 36.9155 22.2557 36.9155 25.8603C36.9156 29.0806 34.3891 38.9578 32.1044 38.9578Z" stroke="white"/>
<path d="M24.8535 23.4388C22.967 23.4388 21.4321 24.9736 21.4321 26.8602C21.4321 27.1481 21.6654 27.3813 21.9532 27.3813C22.241 27.3813 22.4744 27.1481 22.4744 26.8602C22.4744 25.5484 23.5416 24.4812 24.8535 24.4812C25.1413 24.4812 25.3747 24.2479 25.3747 23.96C25.3747 23.6721 25.1413 23.4388 24.8535 23.4388Z" stroke="white"/>
</svg>
