<svg width="150" height="50" viewBox="0 0 150 50" fill="none" xmlns="http://www.w3.org/2000/svg">
<path d="M52.4324 11.0833C52.4324 11.3463 52.3601 11.5764 52.2154 11.7736C52.0708 11.9577 51.9064 12.1024 51.7223 12.2076C51.3804 11.984 50.9991 11.7802 50.5783 11.5961C50.1575 11.412 49.6381 11.32 49.0201 11.32C47.9023 11.32 47.0082 11.6816 46.3375 12.4048C45.6801 13.1281 45.3513 14.1735 45.3513 15.541C45.3513 16.9349 45.6932 17.9803 46.377 18.6772C47.0608 19.3741 47.9812 19.7226 49.1384 19.7226C49.7433 19.7226 50.2627 19.6437 50.6966 19.4859C51.1437 19.315 51.5382 19.1177 51.8801 18.8942C52.0642 19.0125 52.2154 19.1769 52.3338 19.3873C52.4521 19.5845 52.5113 19.8146 52.5113 20.0776C52.5113 20.3012 52.4521 20.505 52.3338 20.6891C52.2154 20.8732 52.0182 21.0376 51.742 21.1822C51.479 21.34 51.1043 21.4846 50.6177 21.6161C50.1444 21.7608 49.5526 21.8331 48.8425 21.8331C47.9747 21.8331 47.166 21.7082 46.4164 21.4583C45.6801 21.1954 45.0357 20.8074 44.4834 20.2946C43.9312 19.7686 43.4972 19.1111 43.1816 18.3222C42.866 17.5332 42.7082 16.6061 42.7082 15.541C42.7082 14.5153 42.866 13.6146 43.1816 12.8388C43.4972 12.0498 43.9246 11.3923 44.4637 10.8663C45.016 10.3272 45.6538 9.91954 46.377 9.6434C47.1134 9.36726 47.8892 9.22919 48.7045 9.22919C49.2699 9.22919 49.7827 9.28179 50.243 9.38699C50.7032 9.47903 51.0977 9.61053 51.4264 9.78147C51.7552 9.95242 52.005 10.1497 52.176 10.3732C52.3469 10.5968 52.4324 10.8334 52.4324 11.0833Z" fill="white"/>
<path d="M58.1939 19.9198C58.5753 19.9198 58.9237 19.887 59.2393 19.8212C59.5549 19.7423 59.785 19.6503 59.9297 19.5451V17.3557L58.0164 17.5332C57.4904 17.5858 57.0894 17.7041 56.8132 17.8882C56.5371 18.0592 56.399 18.3353 56.399 18.7166C56.399 19.098 56.5371 19.3939 56.8132 19.6042C57.1025 19.8146 57.5628 19.9198 58.1939 19.9198ZM58.115 11.892C59.4037 11.892 60.4294 12.1681 61.1921 12.7204C61.9679 13.2727 62.3558 14.1274 62.3558 15.2846V19.8409C62.3558 20.1565 62.2769 20.4064 62.1191 20.5905C61.9613 20.7746 61.7641 20.9389 61.5274 21.0836C61.1592 21.3071 60.6924 21.4846 60.1269 21.6161C59.5615 21.7476 58.9172 21.8134 58.1939 21.8134C56.879 21.8134 55.8402 21.5635 55.0775 21.0639C54.3279 20.551 53.9532 19.7883 53.9532 18.7758C53.9532 17.8948 54.2293 17.2242 54.7816 16.7639C55.347 16.2905 56.1623 16.0012 57.2274 15.8961L59.9297 15.6199V15.2649C59.9297 14.7652 59.7456 14.397 59.3774 14.1603C59.0224 13.9236 58.5161 13.8053 57.8586 13.8053C57.3458 13.8053 56.8461 13.871 56.3596 14.0025C55.873 14.1209 55.4391 14.2721 55.0578 14.4562C54.9131 14.351 54.7882 14.2129 54.683 14.042C54.5909 13.8579 54.5449 13.6606 54.5449 13.4502C54.5449 13.1872 54.6041 12.9768 54.7224 12.819C54.8539 12.6481 55.0578 12.4969 55.3339 12.3654C55.7152 12.2076 56.1492 12.0892 56.6357 12.0103C57.1222 11.9314 57.6154 11.892 58.115 11.892Z" fill="white"/>
<path d="M67.3157 18.618C67.3157 19.0388 67.4406 19.3413 67.6905 19.5254C67.9535 19.7094 68.3151 19.8015 68.7753 19.8015C68.9989 19.8015 69.2224 19.7752 69.446 19.7226C69.6827 19.67 69.8931 19.6042 70.0771 19.5254C70.1823 19.6305 70.2678 19.762 70.3336 19.9198C70.4125 20.0645 70.4519 20.2354 70.4519 20.4327C70.4519 20.8272 70.2744 21.1559 69.9193 21.4189C69.5643 21.6687 68.9923 21.7937 68.2033 21.7937C67.1645 21.7937 66.3427 21.5635 65.7378 21.1033C65.146 20.6299 64.8502 19.8541 64.8502 18.7758V9.7223C64.9554 9.696 65.1066 9.66313 65.3038 9.62368C65.5142 9.58423 65.7378 9.56451 65.9745 9.56451C66.4347 9.56451 66.77 9.64998 66.9804 9.82092C67.204 9.99187 67.3157 10.2943 67.3157 10.7282V12.3654H70.2152C70.281 12.4706 70.3401 12.6086 70.3927 12.7796C70.4453 12.9505 70.4716 13.1346 70.4716 13.3319C70.4716 13.6738 70.3927 13.9236 70.2349 14.0814C70.0771 14.2392 69.8668 14.3181 69.6038 14.3181H67.3157V18.618Z" fill="white"/>
<path d="M76.1463 19.9198C76.5276 19.9198 76.8761 19.887 77.1917 19.8212C77.5073 19.7423 77.7374 19.6503 77.882 19.5451V17.3557L75.9687 17.5332C75.4428 17.5858 75.0417 17.7041 74.7656 17.8882C74.4894 18.0592 74.3513 18.3353 74.3513 18.7166C74.3513 19.098 74.4894 19.3939 74.7656 19.6042C75.0548 19.8146 75.5151 19.9198 76.1463 19.9198ZM76.0674 11.892C77.356 11.892 78.3817 12.1681 79.1444 12.7204C79.9202 13.2727 80.3081 14.1274 80.3081 15.2846V19.8409C80.3081 20.1565 80.2292 20.4064 80.0714 20.5905C79.9136 20.7746 79.7164 20.9389 79.4797 21.0836C79.1115 21.3071 78.6447 21.4846 78.0793 21.6161C77.5138 21.7476 76.8695 21.8134 76.1463 21.8134C74.8313 21.8134 73.7925 21.5635 73.0298 21.0639C72.2803 20.551 71.9055 19.7883 71.9055 18.7758C71.9055 17.8948 72.1817 17.2242 72.7339 16.7639C73.2994 16.2905 74.1146 16.0012 75.1798 15.8961L77.882 15.6199V15.2649C77.882 14.7652 77.6979 14.397 77.3297 14.1603C76.9747 13.9236 76.4684 13.8053 75.811 13.8053C75.2981 13.8053 74.7984 13.871 74.3119 14.0025C73.8254 14.1209 73.3914 14.2721 73.0101 14.4562C72.8654 14.351 72.7405 14.2129 72.6353 14.042C72.5433 13.8579 72.4972 13.6606 72.4972 13.4502C72.4972 13.1872 72.5564 12.9768 72.6748 12.819C72.8063 12.6481 73.0101 12.4969 73.2862 12.3654C73.6676 12.2076 74.1015 12.0892 74.588 12.0103C75.0746 11.9314 75.5677 11.892 76.0674 11.892ZM77.4875 7.31592C77.9741 7.31592 78.3488 7.42769 78.6118 7.65123C78.8748 7.87478 79.0063 8.12462 79.0063 8.40076C79.0063 8.65061 78.9537 8.85442 78.8485 9.01222C78.7433 9.15687 78.5658 9.34096 78.316 9.56451L76.4816 11.2214C76.0608 11.2214 75.7321 11.1162 75.4954 10.9058C75.2718 10.6954 75.16 10.4653 75.16 10.2154C75.16 10.0708 75.1863 9.94584 75.2389 9.84065C75.3047 9.73545 75.4033 9.61053 75.5348 9.46588L77.4875 7.31592Z" fill="white"/>
<path d="M85.3864 21.4978C85.2812 21.5241 85.1234 21.557 84.913 21.5964C84.7158 21.6359 84.4988 21.6556 84.2621 21.6556C83.7887 21.6556 83.4403 21.5701 83.2167 21.3992C83.0063 21.2282 82.9011 20.9258 82.9011 20.4918V8.69663C83.0063 8.65718 83.1575 8.62431 83.3548 8.59801C83.5652 8.55856 83.7887 8.53883 84.0254 8.53883C84.4988 8.53883 84.8407 8.62431 85.0511 8.79525C85.2746 8.9662 85.3864 9.26864 85.3864 9.70258V21.4978Z" fill="white"/>
<path d="M97.2137 16.8428C97.2137 17.6055 97.0953 18.2959 96.8586 18.9139C96.6351 19.5188 96.3129 20.0382 95.8921 20.4721C95.4713 20.9061 94.9651 21.2414 94.3734 21.4781C93.7816 21.7016 93.1176 21.8134 92.3812 21.8134C91.6448 21.8134 90.9807 21.7016 90.389 21.4781C89.7973 21.2414 89.291 20.9126 88.8702 20.4918C88.4494 20.0579 88.1207 19.5385 87.884 18.9336C87.6605 18.3156 87.5487 17.6187 87.5487 16.8428C87.5487 16.0801 87.6605 15.3964 87.884 14.7915C88.1207 14.1735 88.4494 13.654 88.8702 13.2333C89.3042 12.7993 89.817 12.4706 90.4087 12.247C91.0005 12.0103 91.658 11.892 92.3812 11.892C93.1044 11.892 93.7619 12.0103 94.3536 12.247C94.9454 12.4706 95.4516 12.7993 95.8724 13.2333C96.3063 13.6672 96.6351 14.1932 96.8586 14.8112C97.0953 15.4161 97.2137 16.0933 97.2137 16.8428ZM92.3812 13.8644C91.6711 13.8644 91.1122 14.1274 90.7046 14.6534C90.297 15.1662 90.0931 15.8961 90.0931 16.8428C90.0931 17.8027 90.2904 18.5391 90.6849 19.052C91.0925 19.5648 91.658 19.8212 92.3812 19.8212C93.1044 19.8212 93.6633 19.5648 94.0578 19.052C94.4654 18.526 94.6692 17.7896 94.6692 16.8428C94.6692 15.8961 94.4654 15.1662 94.0578 14.6534C93.6501 14.1274 93.0913 13.8644 92.3812 13.8644Z" fill="white"/>
<path d="M105.267 20.7088C105.004 20.8403 104.695 20.9521 104.34 21.0441C103.998 21.1362 103.597 21.1822 103.137 21.1822C102.545 21.1822 101.987 21.1033 101.461 20.9455C100.935 20.7746 100.474 20.505 100.08 20.1368C99.6854 19.7686 99.3698 19.2952 99.1331 18.7166C98.9096 18.1249 98.7978 17.4083 98.7978 16.5667C98.7978 15.804 98.9096 15.1334 99.1331 14.5548C99.3698 13.9631 99.6985 13.4699 100.119 13.0755C100.553 12.681 101.066 12.3851 101.658 12.1879C102.25 11.9906 102.907 11.892 103.63 11.892C104.314 11.892 104.939 11.9775 105.504 12.1484C106.083 12.3194 106.543 12.5166 106.885 12.7401C107.122 12.8979 107.306 13.0755 107.437 13.2727C107.582 13.4699 107.654 13.7198 107.654 14.0222V21.6359C107.654 22.3065 107.529 22.8851 107.279 23.3716C107.043 23.8582 106.714 24.2526 106.293 24.5551C105.872 24.8707 105.379 25.1008 104.814 25.2454C104.248 25.3901 103.637 25.4624 102.979 25.4624C102.296 25.4624 101.697 25.3967 101.184 25.2652C100.685 25.1468 100.31 25.0087 100.06 24.851C99.6262 24.5748 99.4092 24.2066 99.4092 23.7464C99.4092 23.4965 99.4618 23.2796 99.567 23.0955C99.6722 22.9114 99.7972 22.7733 99.9418 22.6813C100.284 22.8917 100.698 23.0758 101.184 23.2335C101.671 23.3913 102.19 23.4702 102.743 23.4702C103.532 23.4702 104.15 23.319 104.597 23.0166C105.044 22.7141 105.267 22.2276 105.267 21.557V20.7088ZM103.551 19.2492C103.933 19.2492 104.255 19.1966 104.518 19.0914C104.794 18.9862 105.031 18.8613 105.228 18.7166V14.2589C105.044 14.1537 104.827 14.0617 104.577 13.9828C104.34 13.9039 104.051 13.8644 103.709 13.8644C102.986 13.8644 102.401 14.088 101.954 14.5351C101.52 14.969 101.303 15.6462 101.303 16.5667C101.303 17.0664 101.355 17.4872 101.461 17.829C101.579 18.1709 101.737 18.4471 101.934 18.6575C102.144 18.8679 102.388 19.0191 102.664 19.1111C102.94 19.2032 103.236 19.2492 103.551 19.2492Z" fill="white"/>
<path d="M119.327 16.8428C119.327 17.6055 119.208 18.2959 118.972 18.9139C118.748 19.5188 118.426 20.0382 118.005 20.4721C117.584 20.9061 117.078 21.2414 116.486 21.4781C115.895 21.7016 115.231 21.8134 114.494 21.8134C113.758 21.8134 113.094 21.7016 112.502 21.4781C111.91 21.2414 111.404 20.9126 110.983 20.4918C110.562 20.0579 110.234 19.5385 109.997 18.9336C109.773 18.3156 109.662 17.6187 109.662 16.8428C109.662 16.0801 109.773 15.3964 109.997 14.7915C110.234 14.1735 110.562 13.654 110.983 13.2333C111.417 12.7993 111.93 12.4706 112.522 12.247C113.113 12.0103 113.771 11.892 114.494 11.892C115.217 11.892 115.875 12.0103 116.467 12.247C117.058 12.4706 117.565 12.7993 117.985 13.2333C118.419 13.6672 118.748 14.1932 118.972 14.8112C119.208 15.4161 119.327 16.0933 119.327 16.8428ZM114.494 13.8644C113.784 13.8644 113.225 14.1274 112.818 14.6534C112.41 15.1662 112.206 15.8961 112.206 16.8428C112.206 17.8027 112.403 18.5391 112.798 19.052C113.205 19.5648 113.771 19.8212 114.494 19.8212C115.217 19.8212 115.776 19.5648 116.171 19.052C116.578 18.526 116.782 17.7896 116.782 16.8428C116.782 15.8961 116.578 15.1662 116.171 14.6534C115.763 14.1274 115.204 13.8644 114.494 13.8644Z" fill="white"/>
<path d="M62.6766 38.4208C62.6766 40.1302 62.4245 41.6424 61.9205 42.9574C61.4164 44.2724 60.7151 45.3791 59.8165 46.2777C58.9399 47.1543 57.8879 47.8228 56.6606 48.283C55.4333 48.7213 54.1074 48.9405 52.6828 48.9405C51.2583 48.9405 49.9324 48.7213 48.7051 48.283C47.4778 47.8228 46.4148 47.1543 45.5163 46.2777C44.6396 45.3791 43.9493 44.2724 43.4452 42.9574C42.9412 41.6424 42.6891 40.1302 42.6891 38.4208C42.6891 36.7113 42.9412 35.2101 43.4452 33.917C43.9712 32.6021 44.6835 31.5063 45.582 30.6296C46.4806 29.7311 47.5326 29.0626 48.7379 28.6243C49.9652 28.1641 51.2802 27.9339 52.6828 27.9339C54.0855 27.9339 55.3895 28.1641 56.5949 28.6243C57.8222 29.0626 58.8851 29.7311 59.7836 30.6296C60.6822 31.5063 61.3835 32.6021 61.8876 33.917C62.4136 35.2101 62.6766 36.7113 62.6766 38.4208ZM58.3043 38.4208C58.3043 36.1415 57.7893 34.4101 56.7592 33.2267C55.7511 32.0213 54.3923 31.4186 52.6828 31.4186C50.9953 31.4186 49.6365 32.0103 48.6065 33.1938C47.5983 34.3773 47.0942 36.1196 47.0942 38.4208C47.0942 40.722 47.5983 42.4643 48.6065 43.6478C49.6146 44.8312 50.9734 45.423 52.6828 45.423C54.3923 45.423 55.7511 44.8312 56.7592 43.6478C57.7893 42.4643 58.3043 40.722 58.3043 38.4208Z" fill="white"/>
<path d="M80.6674 45.3901C80.6674 45.8941 80.5578 46.2996 80.3387 46.6064C80.1195 46.9132 79.7908 47.2091 79.3524 47.494C78.8045 47.8447 78.0813 48.1625 77.1828 48.4474C76.2842 48.7542 75.2432 48.9076 74.0597 48.9076C71.4298 48.9076 69.3368 48.2392 67.7808 46.9023C66.2467 45.5435 65.4796 43.4724 65.4796 40.6891C65.4796 39.2426 65.6878 38.0044 66.1042 36.9743C66.5206 35.9223 67.0795 35.0567 67.7808 34.3773C68.504 33.6979 69.3478 33.1938 70.3121 32.8651C71.2764 32.5363 72.3174 32.3719 73.4351 32.3719C74.0268 32.3719 74.5857 32.4377 75.1117 32.5692C75.6377 32.6788 76.1089 32.8212 76.5253 32.9965V27.0463C76.7006 26.9806 76.9526 26.9258 77.2814 26.882C77.632 26.8162 78.0046 26.7833 78.3991 26.7833C79.1881 26.7833 79.7579 26.9258 80.1086 27.2107C80.4811 27.4956 80.6674 27.9997 80.6674 28.7229V45.3901ZM76.5253 36.3497C76.1965 36.1525 75.813 35.9881 75.3747 35.8566C74.9364 35.7251 74.4652 35.6594 73.9611 35.6594C72.7338 35.6594 71.7147 36.0538 70.9038 36.8428C70.0929 37.6318 69.6875 38.9248 69.6875 40.722C69.6875 42.4095 70.071 43.6478 70.8381 44.4367C71.627 45.2038 72.69 45.5873 74.0268 45.5873C74.5967 45.5873 75.0788 45.5216 75.4733 45.3901C75.8897 45.2586 76.2404 45.1052 76.5253 44.9298V36.3497Z" fill="white"/>
<path d="M100.24 40.6233C100.24 41.8945 100.043 43.0451 99.6483 44.0751C99.2758 45.0833 98.7388 45.9489 98.0375 46.6722C97.3362 47.3954 96.4924 47.9543 95.5062 48.3487C94.52 48.7213 93.4132 48.9076 92.1859 48.9076C90.9586 48.9076 89.8519 48.7213 88.8656 48.3487C87.8794 47.9543 87.0357 47.4064 86.3343 46.705C85.633 45.9818 85.0851 45.1161 84.6906 44.108C84.3181 43.0779 84.1318 41.9164 84.1318 40.6233C84.1318 39.3522 84.3181 38.2126 84.6906 37.2044C85.0851 36.1744 85.633 35.3087 86.3343 34.6074C87.0576 33.8841 87.9123 33.3362 88.8985 32.9637C89.8847 32.5692 90.9805 32.3719 92.1859 32.3719C93.3913 32.3719 94.4871 32.5692 95.4733 32.9637C96.4595 33.3362 97.3033 33.8841 98.0046 34.6074C98.7279 35.3306 99.2758 36.2073 99.6483 37.2373C100.043 38.2454 100.24 39.3741 100.24 40.6233ZM92.1859 35.6594C91.0025 35.6594 90.071 36.0977 89.3916 36.9743C88.7122 37.829 88.3725 39.0454 88.3725 40.6233C88.3725 42.2232 88.7013 43.4505 89.3587 44.3052C90.0381 45.16 90.9805 45.5873 92.1859 45.5873C93.3913 45.5873 94.3227 45.16 94.9802 44.3052C95.6596 43.4286 95.9993 42.2013 95.9993 40.6233C95.9993 39.0454 95.6596 37.829 94.9802 36.9743C94.3008 36.0977 93.3694 35.6594 92.1859 35.6594Z" fill="white"/>
<path d="M113.959 38.3879C113.959 37.4455 113.685 36.7552 113.137 36.3168C112.611 35.8785 111.888 35.6594 110.967 35.6594C110.332 35.6594 109.74 35.7361 109.192 35.8895C108.666 36.0429 108.206 36.2401 107.811 36.4812V48.3816C107.614 48.4254 107.351 48.4802 107.022 48.546C106.694 48.6117 106.321 48.6446 105.905 48.6446C105.138 48.6446 104.568 48.5022 104.195 48.2172C103.823 47.9323 103.636 47.4283 103.636 46.705V36.1525C103.636 35.6265 103.746 35.1991 103.965 34.8704C104.184 34.5416 104.524 34.2238 104.984 33.917C105.62 33.4787 106.464 33.1171 107.516 32.8322C108.567 32.5254 109.729 32.3719 111 32.3719C113.258 32.3719 115 32.876 116.227 33.8841C117.476 34.8704 118.101 36.3278 118.101 38.2564V48.3816C117.926 48.4254 117.663 48.4802 117.312 48.546C116.983 48.6117 116.622 48.6446 116.227 48.6446C115.438 48.6446 114.857 48.5022 114.485 48.2172C114.134 47.9323 113.959 47.4283 113.959 46.705V38.3879Z" fill="white"/>
<path d="M126.464 43.582C126.464 44.2833 126.672 44.7874 127.088 45.0942C127.526 45.401 128.129 45.5544 128.896 45.5544C129.269 45.5544 129.641 45.5106 130.014 45.423C130.408 45.3353 130.759 45.2257 131.066 45.0942C131.241 45.2695 131.384 45.4887 131.493 45.7517C131.625 45.9928 131.691 46.2777 131.691 46.6064C131.691 47.2639 131.395 47.8118 130.803 48.2501C130.211 48.6665 129.258 48.8747 127.943 48.8747C126.212 48.8747 124.842 48.4912 123.834 47.7241C122.847 46.9352 122.354 45.6421 122.354 43.845V28.7558C122.53 28.712 122.782 28.6572 123.11 28.5914C123.461 28.5257 123.834 28.4928 124.228 28.4928C124.995 28.4928 125.554 28.6353 125.905 28.9202C126.277 29.2051 126.464 29.7091 126.464 30.4324V33.1609H131.296C131.406 33.3362 131.504 33.5664 131.592 33.8513C131.68 34.1362 131.723 34.443 131.723 34.7717C131.723 35.3416 131.592 35.758 131.329 36.021C131.066 36.284 130.715 36.4155 130.277 36.4155H126.464V43.582Z" fill="white"/>
<path d="M150.001 40.6233C150.001 41.8945 149.803 43.0451 149.409 44.0751C149.036 45.0833 148.499 45.9489 147.798 46.6722C147.097 47.3954 146.253 47.9543 145.267 48.3487C144.281 48.7213 143.174 48.9076 141.946 48.9076C140.719 48.9076 139.612 48.7213 138.626 48.3487C137.64 47.9543 136.796 47.4064 136.095 46.705C135.394 45.9818 134.846 45.1161 134.451 44.108C134.079 43.0779 133.892 41.9164 133.892 40.6233C133.892 39.3522 134.079 38.2126 134.451 37.2044C134.846 36.1744 135.394 35.3087 136.095 34.6074C136.818 33.8841 137.673 33.3362 138.659 32.9637C139.645 32.5692 140.741 32.3719 141.946 32.3719C143.152 32.3719 144.248 32.5692 145.234 32.9637C146.22 33.3362 147.064 33.8841 147.765 34.6074C148.488 35.3306 149.036 36.2073 149.409 37.2373C149.803 38.2454 150.001 39.3741 150.001 40.6233ZM141.946 35.6594C140.763 35.6594 139.832 36.0977 139.152 36.9743C138.473 37.829 138.133 39.0454 138.133 40.6233C138.133 42.2232 138.462 43.4505 139.119 44.3052C139.799 45.16 140.741 45.5873 141.946 45.5873C143.152 45.5873 144.083 45.16 144.741 44.3052C145.42 43.4286 145.76 42.2013 145.76 40.6233C145.76 39.0454 145.42 37.829 144.741 36.9743C144.061 36.0977 143.13 35.6594 141.946 35.6594Z" fill="white"/>
<path d="M32.6165 36.1877H39.7819C39.9293 36.4236 40.0472 36.7332 40.1357 37.1166C40.2536 37.4999 40.3126 37.9127 40.3126 38.355C40.3126 39.1512 40.121 39.7409 39.7376 40.1242C39.3543 40.4781 38.8383 40.655 38.1896 40.655H32.6165V48.705C32.3806 48.7934 32.0415 48.8819 31.5992 48.9704C31.1569 49.0293 30.7146 49.0588 30.2723 49.0588C29.3582 49.0588 28.6652 48.8966 28.1934 48.5723C27.7511 48.2184 27.53 47.555 27.53 46.5819V40.655H20.2319C20.0845 40.3896 19.9518 40.08 19.8339 39.7262C19.7454 39.3428 19.7012 38.93 19.7012 38.4877C19.7012 37.6916 19.8928 37.1166 20.2762 36.7627C20.6595 36.3794 21.1903 36.1877 21.8685 36.1877H27.53V28.2705C27.7954 28.182 28.1492 28.1083 28.5915 28.0493C29.0338 27.9608 29.4761 27.9166 29.9184 27.9166C30.803 27.9166 31.4665 28.0935 31.9088 28.4474C32.3806 28.7717 32.6165 29.4204 32.6165 30.3935V36.1877Z" fill="white"/>
<path opacity="0.24" d="M32.2764 11.0752V22.0801C32.2764 22.954 31.6074 23.6623 30.7821 23.6623C29.9568 23.6623 29.2878 22.954 29.2878 22.0801V12.6574H26.2993V17.4039C26.2993 18.2778 25.6303 18.9861 24.805 18.9861C23.9797 18.9861 23.3107 18.2778 23.3107 17.4039V12.6574H8.96566V17.4039C8.96566 18.2778 8.29667 18.9861 7.47138 18.9861C6.64609 18.9861 5.97711 18.2778 5.97711 17.4039V12.6574H2.98855V37.3393H14.0462C14.8715 37.3393 15.5405 38.0477 15.5405 38.9215C15.5405 39.7953 14.8715 40.5037 14.0462 40.5037H1.49428C0.668988 40.5037 0 39.7953 0 38.9215V11.0752C0 10.2014 0.668988 9.49305 1.49428 9.49305H6.04778C6.64139 4.15503 10.9398 0 16.1382 0C21.3365 0 25.635 4.15503 26.2286 9.49305H30.7821C31.6074 9.49305 32.2764 10.2014 32.2764 11.0752ZM23.2105 9.49305C22.6397 5.90586 19.6858 3.16435 16.1382 3.16435C12.5905 3.16435 9.63666 5.90586 9.06585 9.49305H23.2105Z" fill="white"/>
</svg>
