<svg width="200" height="66" viewBox="0 0 200 66" fill="none" xmlns="http://www.w3.org/2000/svg">
<path d="M69.9092 14.7778C69.9092 15.1284 69.8128 15.4353 69.6199 15.6983C69.4271 15.9437 69.2079 16.1366 68.9624 16.2768C68.5066 15.9788 67.9981 15.707 67.4371 15.4616C66.876 15.2161 66.1835 15.0934 65.3594 15.0934C63.8691 15.0934 62.6769 15.5755 61.7827 16.5398C60.9061 17.5041 60.4678 18.898 60.4678 20.7214C60.4678 22.5799 60.9236 23.9738 61.8353 24.903C62.747 25.8322 63.9743 26.2969 65.5172 26.2969C66.3237 26.2969 67.0163 26.1917 67.5949 25.9813C68.191 25.7533 68.717 25.4903 69.1728 25.1923C69.4183 25.3501 69.6199 25.5692 69.7777 25.8498C69.9355 26.1128 70.0144 26.4196 70.0144 26.7702C70.0144 27.0683 69.9355 27.3401 69.7777 27.5855C69.6199 27.831 69.3569 28.0501 68.9887 28.243C68.6381 28.4534 68.1384 28.6463 67.4897 28.8216C66.8585 29.0145 66.0695 29.1109 65.1227 29.1109C63.9656 29.1109 62.8873 28.9443 61.8879 28.6112C60.9061 28.2605 60.047 27.7433 59.3106 27.0595C58.5742 26.3582 57.9956 25.4816 57.5749 24.4296C57.1541 23.3776 56.9437 22.1416 56.9437 20.7214C56.9437 19.3539 57.1541 18.1529 57.5749 17.1184C57.9956 16.0664 58.5655 15.1898 59.2843 14.4885C60.0207 13.7696 60.871 13.2261 61.8353 12.8579C62.8172 12.4897 63.8516 12.3057 64.9387 12.3057C65.6926 12.3057 66.3763 12.3758 66.99 12.516C67.6036 12.6388 68.1296 12.8141 68.5679 13.042C69.0063 13.27 69.3394 13.533 69.5673 13.831C69.7952 14.1291 69.9092 14.4447 69.9092 14.7778Z" fill="#1ABC9C"/>
<path d="M77.5913 26.5599C78.0997 26.5599 78.5643 26.516 78.9851 26.4284C79.4059 26.3232 79.7127 26.2004 79.9056 26.0602V23.1409L77.3546 23.3776C76.6533 23.4478 76.1185 23.6056 75.7503 23.851C75.3821 24.079 75.198 24.4471 75.198 24.9556C75.198 25.4641 75.3821 25.8585 75.7503 26.1391C76.136 26.4196 76.7497 26.5599 77.5913 26.5599ZM77.4861 15.8561C79.2043 15.8561 80.5718 16.2242 81.5888 16.9606C82.6232 17.697 83.1404 18.8366 83.1404 20.3795V26.4547C83.1404 26.8754 83.0352 27.2086 82.8248 27.454C82.6144 27.6995 82.3514 27.9186 82.0358 28.1115C81.5449 28.4096 80.9225 28.6463 80.1686 28.8216C79.4147 28.9969 78.5556 29.0846 77.5913 29.0846C75.838 29.0846 74.4529 28.7515 73.436 28.0852C72.4366 27.4014 71.9369 26.3845 71.9369 25.0345C71.9369 23.8598 72.3051 22.9656 73.0415 22.352C73.7954 21.7208 74.8824 21.3351 76.3026 21.1948L79.9056 20.8266V20.3532C79.9056 19.687 79.6601 19.1961 79.1692 18.8805C78.6958 18.5649 78.0208 18.4071 77.1442 18.4071C76.4604 18.4071 75.7941 18.4947 75.1454 18.6701C74.4967 18.8279 73.9181 19.0295 73.4097 19.275C73.2168 19.1347 73.0503 18.9506 72.91 18.7227C72.7873 18.4772 72.7259 18.2142 72.7259 17.9337C72.7259 17.583 72.8048 17.3025 72.9626 17.0921C73.1379 16.8642 73.4097 16.6626 73.7779 16.4872C74.2863 16.2768 74.8649 16.119 75.5136 16.0138C76.1623 15.9087 76.8198 15.8561 77.4861 15.8561Z" fill="#1ABC9C"/>
<path d="M89.7536 24.8241C89.7536 25.3852 89.9202 25.7884 90.2533 26.0339C90.604 26.2793 91.0861 26.4021 91.6998 26.4021C91.9978 26.4021 92.2959 26.367 92.594 26.2969C92.9096 26.2267 93.1901 26.1391 93.4355 26.0339C93.5758 26.1741 93.6898 26.3495 93.7774 26.5599C93.8826 26.7527 93.9352 26.9806 93.9352 27.2436C93.9352 27.7696 93.6985 28.2079 93.2252 28.5586C92.7518 28.8917 91.9891 29.0583 90.9371 29.0583C89.552 29.0583 88.4562 28.7515 87.6497 28.1378C86.8607 27.5066 86.4662 26.4722 86.4662 25.0345V12.9631C86.6065 12.9281 86.8081 12.8842 87.0711 12.8316C87.3516 12.779 87.6497 12.7527 87.9653 12.7527C88.5789 12.7527 89.026 12.8667 89.3066 13.0946C89.6046 13.3226 89.7536 13.7258 89.7536 14.3044V16.4872H93.6196C93.7073 16.6275 93.7862 16.8116 93.8563 17.0395C93.9265 17.2674 93.9615 17.5129 93.9615 17.7759C93.9615 18.2318 93.8563 18.5649 93.6459 18.7753C93.4355 18.9857 93.155 19.0909 92.8044 19.0909H89.7536V24.8241Z" fill="#1ABC9C"/>
<path d="M101.528 26.5599C102.036 26.5599 102.501 26.516 102.922 26.4284C103.342 26.3232 103.649 26.2004 103.842 26.0602V23.1409L101.291 23.3776C100.59 23.4478 100.055 23.6056 99.6868 23.851C99.3186 24.079 99.1345 24.4471 99.1345 24.9556C99.1345 25.4641 99.3186 25.8585 99.6868 26.1391C100.072 26.4196 100.686 26.5599 101.528 26.5599ZM101.423 15.8561C103.141 15.8561 104.508 16.2242 105.525 16.9606C106.56 17.697 107.077 18.8366 107.077 20.3795V26.4547C107.077 26.8754 106.972 27.2086 106.761 27.454C106.551 27.6995 106.288 27.9186 105.972 28.1115C105.481 28.4096 104.859 28.6463 104.105 28.8216C103.351 28.9969 102.492 29.0846 101.528 29.0846C99.7744 29.0846 98.3893 28.7515 97.3724 28.0852C96.373 27.4014 95.8734 26.3845 95.8734 25.0345C95.8734 23.8598 96.2416 22.9656 96.9779 22.352C97.7318 21.7208 98.8189 21.3351 100.239 21.1948L103.842 20.8266V20.3532C103.842 19.687 103.597 19.1961 103.106 18.8805C102.632 18.5649 101.957 18.4071 101.081 18.4071C100.397 18.4071 99.7306 18.4947 99.0819 18.6701C98.4332 18.8279 97.8546 19.0295 97.3461 19.275C97.1533 19.1347 96.9867 18.9506 96.8464 18.7227C96.7237 18.4772 96.6623 18.2142 96.6623 17.9337C96.6623 17.583 96.7412 17.3025 96.899 17.0921C97.0744 16.8642 97.3461 16.6626 97.7143 16.4872C98.2228 16.2768 98.8013 16.119 99.4501 16.0138C100.099 15.9087 100.756 15.8561 101.423 15.8561ZM103.316 9.75462C103.965 9.75462 104.464 9.90365 104.815 10.2017C105.166 10.4998 105.341 10.8329 105.341 11.2011C105.341 11.5342 105.271 11.806 105.131 12.0164C104.99 12.2092 104.754 12.4547 104.421 12.7527L101.975 14.9619C101.414 14.9619 100.975 14.8216 100.66 14.5411C100.362 14.2606 100.213 13.9537 100.213 13.6206C100.213 13.4278 100.248 13.2612 100.318 13.1209C100.406 12.9807 100.537 12.8141 100.712 12.6212L103.316 9.75462Z" fill="#1ABC9C"/>
<path d="M113.848 28.6638C113.708 28.6989 113.497 28.7427 113.217 28.7953C112.954 28.8479 112.664 28.8742 112.349 28.8742C111.718 28.8742 111.253 28.7602 110.955 28.5323C110.674 28.3044 110.534 27.9011 110.534 27.3225V11.5956C110.674 11.543 110.876 11.4991 111.139 11.4641C111.42 11.4115 111.718 11.3852 112.033 11.3852C112.664 11.3852 113.12 11.4991 113.401 11.7271C113.699 11.955 113.848 12.3583 113.848 12.9368V28.6638Z" fill="#1ABC9C"/>
<path d="M129.618 22.4572C129.618 23.4741 129.46 24.3945 129.144 25.2186C128.846 26.0251 128.417 26.7176 127.856 27.2962C127.294 27.8748 126.619 28.3219 125.83 28.6375C125.042 28.9356 124.156 29.0846 123.174 29.0846C122.192 29.0846 121.307 28.9356 120.518 28.6375C119.729 28.3219 119.054 27.8836 118.493 27.3225C117.932 26.7439 117.494 26.0514 117.178 25.2449C116.88 24.4208 116.731 23.4916 116.731 22.4572C116.731 21.4403 116.88 20.5286 117.178 19.722C117.494 18.898 117.932 18.2055 118.493 17.6444C119.072 17.0658 119.755 16.6275 120.544 16.3294C121.333 16.0138 122.21 15.8561 123.174 15.8561C124.139 15.8561 125.015 16.0138 125.804 16.3294C126.593 16.6275 127.268 17.0658 127.829 17.6444C128.408 18.223 128.846 18.9243 129.144 19.7483C129.46 20.5549 129.618 21.4578 129.618 22.4572ZM123.174 18.486C122.227 18.486 121.482 18.8366 120.939 19.5379C120.395 20.2217 120.124 21.1948 120.124 22.4572C120.124 23.7371 120.387 24.7189 120.913 25.4027C121.456 26.0865 122.21 26.4284 123.174 26.4284C124.139 26.4284 124.884 26.0865 125.41 25.4027C125.953 24.7014 126.225 23.7195 126.225 22.4572C126.225 21.1948 125.953 20.2217 125.41 19.5379C124.866 18.8366 124.121 18.486 123.174 18.486Z" fill="#1ABC9C"/>
<path d="M140.356 27.6118C140.005 27.7872 139.593 27.9362 139.12 28.0589C138.664 28.1816 138.129 28.243 137.516 28.243C136.727 28.243 135.981 28.1378 135.28 27.9274C134.579 27.6995 133.965 27.3401 133.439 26.8491C132.913 26.3582 132.492 25.727 132.177 24.9556C131.879 24.1666 131.73 23.2111 131.73 22.089C131.73 21.0721 131.879 20.1779 132.177 19.4065C132.492 18.6175 132.931 17.96 133.492 17.434C134.07 16.908 134.754 16.5135 135.543 16.2505C136.332 15.9875 137.209 15.8561 138.173 15.8561C139.085 15.8561 139.918 15.97 140.671 16.1979C141.443 16.4259 142.057 16.6889 142.512 16.9869C142.828 17.1973 143.073 17.434 143.249 17.697C143.442 17.96 143.538 18.2931 143.538 18.6964V28.8479C143.538 29.7421 143.372 30.5135 143.038 31.1622C142.723 31.8109 142.285 32.3369 141.723 32.7402C141.162 33.161 140.505 33.4678 139.751 33.6607C138.997 33.8535 138.182 33.9499 137.305 33.9499C136.393 33.9499 135.596 33.8623 134.912 33.687C134.246 33.5292 133.746 33.3451 133.413 33.1347C132.834 32.7665 132.545 32.2756 132.545 31.6619C132.545 31.3288 132.615 31.0395 132.755 30.794C132.896 30.5486 133.062 30.3645 133.255 30.2418C133.711 30.5223 134.263 30.7677 134.912 30.9781C135.561 31.1885 136.253 31.2937 136.99 31.2937C138.042 31.2937 138.866 31.0921 139.462 30.6888C140.058 30.2856 140.356 29.6369 140.356 28.7427V27.6118ZM138.068 25.6657C138.576 25.6657 139.006 25.5955 139.357 25.4553C139.725 25.315 140.04 25.1485 140.303 24.9556V19.012C140.058 18.8717 139.769 18.749 139.435 18.6438C139.12 18.5386 138.734 18.486 138.278 18.486C137.314 18.486 136.534 18.784 135.938 19.3802C135.359 19.9587 135.07 20.8617 135.07 22.089C135.07 22.7552 135.14 23.3163 135.28 23.7721C135.438 24.228 135.648 24.5962 135.911 24.8767C136.192 25.1572 136.516 25.3589 136.884 25.4816C137.253 25.6043 137.647 25.6657 138.068 25.6657Z" fill="#1ABC9C"/>
<path d="M159.102 22.4572C159.102 23.4741 158.944 24.3945 158.628 25.2186C158.33 26.0251 157.901 26.7176 157.339 27.2962C156.778 27.8748 156.103 28.3219 155.314 28.6375C154.525 28.9356 153.64 29.0846 152.658 29.0846C151.676 29.0846 150.791 28.9356 150.002 28.6375C149.213 28.3219 148.538 27.8836 147.977 27.3225C147.416 26.7439 146.978 26.0514 146.662 25.2449C146.364 24.4208 146.215 23.4916 146.215 22.4572C146.215 21.4403 146.364 20.5286 146.662 19.722C146.978 18.898 147.416 18.2055 147.977 17.6444C148.556 17.0658 149.239 16.6275 150.028 16.3294C150.817 16.0138 151.694 15.8561 152.658 15.8561C153.623 15.8561 154.499 16.0138 155.288 16.3294C156.077 16.6275 156.752 17.0658 157.313 17.6444C157.892 18.223 158.33 18.9243 158.628 19.7483C158.944 20.5549 159.102 21.4578 159.102 22.4572ZM152.658 18.486C151.711 18.486 150.966 18.8366 150.423 19.5379C149.879 20.2217 149.607 21.1948 149.607 22.4572C149.607 23.7371 149.87 24.7189 150.396 25.4027C150.94 26.0865 151.694 26.4284 152.658 26.4284C153.623 26.4284 154.368 26.0865 154.894 25.4027C155.437 24.7014 155.709 23.7195 155.709 22.4572C155.709 21.1948 155.437 20.2217 154.894 19.5379C154.35 18.8366 153.605 18.486 152.658 18.486Z" fill="#1ABC9C"/>
<path d="M83.5681 51.2278C83.5681 53.507 83.232 55.5233 82.56 57.2766C81.8879 59.0299 80.9528 60.5056 79.7547 61.7036C78.5858 62.8725 77.1832 63.7637 75.5468 64.3774C73.9104 64.9618 72.1425 65.254 70.2431 65.254C68.3437 65.254 66.5758 64.9618 64.9394 64.3774C63.303 63.7637 61.8858 62.8725 60.6877 61.7036C59.5189 60.5056 58.5984 59.0299 57.9263 57.2766C57.2542 55.5233 56.9182 53.507 56.9182 51.2278C56.9182 48.9485 57.2542 46.9468 57.9263 45.2228C58.6276 43.4695 59.5773 42.0084 60.7754 40.8396C61.9735 39.6415 63.3761 38.7502 64.9833 38.1658C66.6197 37.5521 68.373 37.2453 70.2431 37.2453C72.1133 37.2453 73.852 37.5521 75.4591 38.1658C77.0955 38.7502 78.5128 39.6415 79.7109 40.8396C80.9089 42.0084 81.844 43.4695 82.5161 45.2228C83.2174 46.9468 83.5681 48.9485 83.5681 51.2278ZM77.7384 51.2278C77.7384 48.1887 77.0517 45.8802 75.6783 44.3023C74.3341 42.6951 72.5224 41.8915 70.2431 41.8915C67.9931 41.8915 66.1814 42.6805 64.8079 44.2585C63.4638 45.8364 62.7917 48.1595 62.7917 51.2278C62.7917 54.296 63.4638 56.6191 64.8079 58.1971C66.1521 59.775 67.9639 60.564 70.2431 60.564C72.5224 60.564 74.3341 59.775 75.6783 58.1971C77.0517 56.6191 77.7384 54.296 77.7384 51.2278Z" fill="#1ABC9C"/>
<path d="M107.556 60.5202C107.556 61.1923 107.41 61.7329 107.118 62.142C106.825 62.5511 106.387 62.9455 105.803 63.3254C105.072 63.793 104.108 64.2167 102.91 64.5966C101.712 65.0057 100.324 65.2102 98.7456 65.2102C95.2391 65.2102 92.4484 64.319 90.3737 62.5364C88.3282 60.7247 87.3055 57.9633 87.3055 54.2522C87.3055 52.3236 87.5831 50.6726 88.1383 49.2992C88.6935 47.8965 89.4386 46.7423 90.3737 45.8364C91.338 44.9306 92.463 44.2585 93.7488 43.8201C95.0345 43.3818 96.4225 43.1627 97.9128 43.1627C98.7018 43.1627 99.447 43.2503 100.148 43.4256C100.85 43.5718 101.478 43.7617 102.033 43.9955V36.0619C102.267 35.9742 102.603 35.9011 103.041 35.8427C103.509 35.755 104.005 35.7112 104.531 35.7112C105.583 35.7112 106.343 35.9011 106.811 36.281C107.308 36.6609 107.556 37.333 107.556 38.2973V60.5202ZM102.033 48.4663C101.595 48.2034 101.083 47.9842 100.499 47.8089C99.9145 47.6335 99.2862 47.5459 98.6141 47.5459C96.9777 47.5459 95.6189 48.0718 94.5378 49.1238C93.4566 50.1758 92.916 51.8999 92.916 54.296C92.916 56.5461 93.4273 58.1971 94.4501 59.249C95.5021 60.2718 96.9193 60.7832 98.7018 60.7832C99.4616 60.7832 100.104 60.6955 100.63 60.5202C101.186 60.3448 101.653 60.1403 102.033 59.9065V48.4663Z" fill="#1ABC9C"/>
<path d="M133.653 54.1645C133.653 55.8594 133.39 57.3935 132.864 58.7669C132.367 60.1111 131.651 61.2653 130.716 62.2296C129.781 63.1939 128.656 63.9391 127.341 64.4651C126.026 64.9618 124.55 65.2102 122.914 65.2102C121.278 65.2102 119.802 64.9618 118.487 64.4651C117.172 63.9391 116.047 63.2085 115.112 62.2735C114.177 61.3092 113.446 60.1549 112.92 58.8107C112.423 57.4373 112.175 55.8886 112.175 54.1645C112.175 52.4697 112.423 50.9502 112.92 49.606C113.446 48.2326 114.177 47.0783 115.112 46.1432C116.076 45.1789 117.216 44.4484 118.531 43.9516C119.846 43.4256 121.307 43.1627 122.914 43.1627C124.521 43.1627 125.982 43.4256 127.297 43.9516C128.612 44.4484 129.737 45.1789 130.672 46.1432C131.636 47.1075 132.367 48.2764 132.864 49.6498C133.39 50.994 133.653 52.4989 133.653 54.1645ZM122.914 47.5459C121.336 47.5459 120.094 48.1303 119.188 49.2992C118.282 50.4388 117.829 52.0606 117.829 54.1645C117.829 56.2977 118.268 57.9341 119.144 59.0737C120.05 60.2133 121.307 60.7832 122.914 60.7832C124.521 60.7832 125.763 60.2133 126.64 59.0737C127.546 57.9049 127.998 56.2685 127.998 54.1645C127.998 52.0606 127.546 50.4388 126.64 49.2992C125.734 48.1303 124.492 47.5459 122.914 47.5459Z" fill="#1ABC9C"/>
<path d="M151.944 51.1839C151.944 49.9274 151.579 49.0069 150.849 48.4225C150.147 47.8381 149.183 47.5459 147.956 47.5459C147.108 47.5459 146.319 47.6481 145.589 47.8527C144.887 48.0572 144.274 48.3202 143.748 48.6417V64.5089C143.485 64.5673 143.134 64.6404 142.696 64.7281C142.258 64.8157 141.761 64.8596 141.206 64.8596C140.183 64.8596 139.423 64.6696 138.926 64.2897C138.43 63.9099 138.181 63.2378 138.181 62.2735V48.2033C138.181 47.502 138.327 46.9322 138.619 46.4939C138.912 46.0556 139.365 45.6319 139.978 45.2228C140.826 44.6383 141.951 44.1562 143.353 43.7763C144.756 43.3672 146.305 43.1627 148 43.1627C151.009 43.1627 153.332 43.8348 154.969 45.1789C156.634 46.4939 157.467 48.4371 157.467 51.0086V64.5089C157.234 64.5673 156.883 64.6404 156.415 64.7281C155.977 64.8157 155.495 64.8596 154.969 64.8596C153.917 64.8596 153.143 64.6696 152.646 64.2897C152.178 63.9099 151.944 63.2378 151.944 62.2735V51.1839Z" fill="#1ABC9C"/>
<path d="M168.617 58.1094C168.617 59.0445 168.895 59.7166 169.45 60.1257C170.035 60.5348 170.838 60.7393 171.861 60.7393C172.358 60.7393 172.855 60.6809 173.351 60.564C173.877 60.4471 174.345 60.301 174.754 60.1257C174.988 60.3595 175.178 60.6517 175.324 61.0023C175.499 61.3238 175.587 61.7036 175.587 62.142C175.587 63.0186 175.192 63.7491 174.403 64.3336C173.614 64.8888 172.343 65.1664 170.59 65.1664C168.281 65.1664 166.455 64.655 165.111 63.6323C163.796 62.5803 163.138 60.8562 163.138 58.4601V38.3411C163.372 38.2827 163.708 38.2096 164.147 38.122C164.614 38.0343 165.111 37.9905 165.637 37.9905C166.66 37.9905 167.405 38.1804 167.872 38.5603C168.369 38.9402 168.617 39.6123 168.617 40.5766V44.2146H175.061C175.207 44.4484 175.338 44.7552 175.455 45.1351C175.572 45.515 175.631 45.9241 175.631 46.3624C175.631 47.1222 175.455 47.6774 175.105 48.028C174.754 48.3787 174.286 48.554 173.702 48.554H168.617V58.1094Z" fill="#1ABC9C"/>
<path d="M200 54.1645C200 55.8594 199.737 57.3935 199.211 58.7669C198.714 60.1111 197.999 61.2653 197.063 62.2296C196.128 63.1939 195.003 63.9391 193.688 64.4651C192.373 64.9618 190.898 65.2102 189.261 65.2102C187.625 65.2102 186.149 64.9618 184.834 64.4651C183.519 63.9391 182.394 63.2085 181.459 62.2735C180.524 61.3092 179.794 60.1549 179.268 58.8107C178.771 57.4373 178.522 55.8886 178.522 54.1645C178.522 52.4697 178.771 50.9502 179.268 49.606C179.794 48.2326 180.524 47.0783 181.459 46.1432C182.424 45.1789 183.563 44.4484 184.878 43.9516C186.193 43.4256 187.654 43.1627 189.261 43.1627C190.868 43.1627 192.33 43.4256 193.645 43.9516C194.96 44.4484 196.085 45.1789 197.02 46.1432C197.984 47.1075 198.714 48.2764 199.211 49.6498C199.737 50.994 200 52.4989 200 54.1645ZM189.261 47.5459C187.683 47.5459 186.441 48.1303 185.536 49.2992C184.63 50.4388 184.177 52.0606 184.177 54.1645C184.177 56.2977 184.615 57.9341 185.492 59.0737C186.398 60.2133 187.654 60.7832 189.261 60.7832C190.868 60.7832 192.11 60.2133 192.987 59.0737C193.893 57.9049 194.346 56.2685 194.346 54.1645C194.346 52.0606 193.893 50.4388 192.987 49.2992C192.081 48.1303 190.839 47.5459 189.261 47.5459Z" fill="#1ABC9C"/>
<path d="M43.488 48.2504H53.0418C53.2384 48.5649 53.3957 48.9777 53.5136 49.4888C53.6709 49.9999 53.7495 50.5504 53.7495 51.1401C53.7495 52.2016 53.494 52.988 52.9828 53.4991C52.4717 53.9709 51.7837 54.2068 50.9188 54.2068H43.488V64.94C43.1735 65.058 42.7214 65.1759 42.1316 65.2939C41.5419 65.3725 40.9521 65.4118 40.3624 65.4118C39.1436 65.4118 38.2197 65.1956 37.5906 64.7631C37.0009 64.2913 36.706 63.4067 36.706 62.1093V54.2068H26.9753C26.7787 53.8529 26.6018 53.4401 26.4445 52.9683C26.3266 52.4572 26.2676 51.9068 26.2676 51.317C26.2676 50.2555 26.5231 49.4888 27.0342 49.017C27.5454 48.5059 28.253 48.2504 29.1573 48.2504H36.706V37.694C37.0598 37.5761 37.5316 37.4778 38.1214 37.3991C38.7111 37.2812 39.3009 37.2222 39.8906 37.2222C41.0701 37.2222 41.9547 37.4581 42.5444 37.9299C43.1735 38.3624 43.488 39.2273 43.488 40.5248V48.2504Z" fill="#1ABC9C"/>
<path opacity="0.24" d="M43.0352 14.767V29.4402C43.0352 30.6053 42.1432 31.5497 41.0428 31.5497C39.9424 31.5497 39.0504 30.6053 39.0504 29.4402V16.8765H35.0657V23.2052C35.0657 24.3703 34.1737 25.3148 33.0733 25.3148C31.9729 25.3148 31.0809 24.3703 31.0809 23.2052V16.8765H11.9542V23.2052C11.9542 24.3703 11.0622 25.3148 9.96184 25.3148C8.86146 25.3148 7.96947 24.3703 7.96947 23.2052V16.8765H3.98474V49.7858H18.7283C19.8286 49.7858 20.7206 50.7302 20.7206 51.8953C20.7206 53.0605 19.8286 54.0049 18.7283 54.0049H1.99237C0.891983 54.0049 0 53.0605 0 51.8953V14.767C0 13.6019 0.891983 12.6574 1.99237 12.6574H8.06371C8.85518 5.54004 14.5864 0 21.5176 0C28.4487 0 34.18 5.54004 34.9714 12.6574H41.0428C42.1432 12.6574 43.0352 13.6019 43.0352 14.767ZM30.9474 12.6574C30.1863 7.87449 26.2478 4.21913 21.5176 4.21913C16.7874 4.21913 12.8489 7.87449 12.0878 12.6574H30.9474Z" fill="#1ABC9C"/>
</svg>
