<svg width="36" height="36" viewBox="0 0 36 36" fill="none" xmlns="http://www.w3.org/2000/svg">
<path fill-rule="evenodd" clip-rule="evenodd" d="M30.7231 5.55885C27.4414 2.27343 23.0774 0.463331 18.4277 0.461426C8.84733 0.461426 1.0499 8.25823 1.04616 17.8416C1.04482 20.9051 1.8452 23.8952 3.3663 26.5311L0.900391 35.538L10.1146 33.121C12.6533 34.5057 15.5117 35.2356 18.4208 35.2366H18.4278C18.4284 35.2366 18.4274 35.2366 18.428 35.2366C28.0074 35.2366 35.8053 27.439 35.8093 17.8555C35.811 13.2111 34.0047 8.84412 30.7231 5.55885ZM18.4278 32.3011H18.4219C15.8297 32.3001 13.2871 31.6036 11.069 30.2874L10.5415 29.9743L5.07367 31.4086L6.53318 26.0776L6.18965 25.5309C4.74355 23.2308 3.97978 20.5723 3.98091 17.8426C3.98402 9.87726 10.465 3.39703 18.4336 3.39703C22.2923 3.39823 25.9196 4.90296 28.6472 7.63367C31.3748 10.3644 32.8761 13.9941 32.8745 17.8543C32.8713 25.8202 26.3905 32.3011 18.4278 32.3011Z" fill="white"/>
<path fill-rule="evenodd" clip-rule="evenodd" d="M26.352 21.4813C25.9177 21.2639 23.7824 20.2134 23.3844 20.0683C22.9863 19.9234 22.6967 19.851 22.4072 20.2857C22.1177 20.7204 21.2854 21.6987 21.032 21.9887C20.7787 22.2784 20.5253 22.3148 20.0911 22.0972C19.6568 21.8799 18.2574 21.4213 16.5986 19.9417C15.3074 18.79 14.4359 17.3679 14.1824 16.933C13.9291 16.4983 14.1555 16.2633 14.3729 16.0467C14.5683 15.852 14.8073 15.5395 15.0245 15.2858C15.2416 15.0323 15.3139 14.851 15.4587 14.5613C15.6035 14.2714 15.5312 14.0178 15.4225 13.8005C15.3139 13.5831 14.4454 11.4454 14.0835 10.5757C13.7309 9.72893 13.3729 9.84366 13.1063 9.83018C12.8533 9.81755 12.5634 9.81494 12.2739 9.81494C11.9844 9.81494 11.5138 9.92367 11.1158 10.3584C10.7177 10.7932 9.5957 11.844 9.5957 13.9815C9.5957 16.1192 11.1519 18.1844 11.3691 18.4741C11.5862 18.7641 14.4316 23.1507 18.7882 25.0319C19.8244 25.4795 20.6334 25.7466 21.2641 25.9467C22.3045 26.2774 23.2513 26.2307 23.9996 26.1188C24.8341 25.9942 26.5692 25.0683 26.931 24.0539C27.293 23.0393 27.293 22.1696 27.1843 21.9886C27.0758 21.8075 26.7863 21.6987 26.352 21.4813Z" fill="white"/>
</svg>
