<svg width="100" height="100" viewBox="0 0 100 100" fill="none" xmlns="http://www.w3.org/2000/svg">
<path d="M29.4531 62.187C28.3984 62.187 27.5391 63.0464 27.5391 64.1011V93.2417H13.125V64.1792C13.125 63.1245 12.2656 62.2651 11.2109 62.2651C10.1563 62.2651 9.29688 63.1245 9.29688 64.1792V95.1948C9.29688 96.2495 10.1563 97.1089 11.2109 97.1089H29.4531C30.5078 97.1089 31.3672 96.2495 31.3672 95.1948V64.1401C31.3672 63.0464 30.5078 62.187 29.4531 62.187Z" fill="#1ABC9C"/>
<path d="M59.1016 54.7651C58.0469 54.7651 57.1875 55.6245 57.1875 56.6792V93.2417H42.8125V62.4214C42.8125 61.3667 41.9531 60.5073 40.8984 60.5073C39.8437 60.5073 38.9844 61.3667 38.9844 62.4214V95.1558C38.9844 96.2105 39.8437 97.0698 40.8984 97.0698H59.1406C60.1953 97.0698 61.0547 96.2105 61.0547 95.1558V56.6792C61.0547 55.6245 60.1953 54.7651 59.1016 54.7651Z" fill="#1ABC9C"/>
<path d="M88.8281 37.0703C87.7734 37.0703 86.9141 37.9297 86.9141 38.9844V93.2422H72.5V50.3516C72.5 49.2969 71.6406 48.4375 70.5859 48.4375C69.5312 48.4375 68.6719 49.2969 68.6719 50.3516V95.1562C68.6719 96.2109 69.5312 97.0703 70.5859 97.0703H88.8281C89.8828 97.0703 90.7422 96.2109 90.7422 95.1562V39.0234C90.7422 37.9297 89.8828 37.0703 88.8281 37.0703Z" fill="#1ABC9C"/>
<path d="M91.7583 4.68734C91.7192 3.98421 91.2895 3.39827 90.7036 3.08577C90.0786 2.77327 89.3364 2.81234 88.7895 3.20296L67.7739 17.1873C67.1879 17.578 66.8754 18.242 66.9145 18.9061C66.9536 19.6092 67.3833 20.1951 67.9692 20.5076L77.3442 25.1561C67.3833 47.2655 34.9614 55.8201 8.75045 52.578C7.69576 52.4217 6.7192 53.203 6.60201 54.2576C6.48482 55.3123 7.22701 56.2889 8.2817 56.4061C12.1489 56.8748 16.0942 57.1092 20.1176 57.1092C45.2739 57.1092 71.4848 47.4998 80.8208 26.8358L90.6254 31.7186C90.8989 31.8358 91.1723 31.9139 91.4848 31.9139C91.8754 31.9139 92.227 31.7967 92.5395 31.6014C93.1254 31.2108 93.4379 30.5467 93.3989 29.8826L91.7583 4.68734ZM80.5864 22.4608C80.5473 22.4608 80.5473 22.4217 80.5864 22.4608C80.5473 22.4217 80.5473 22.4217 80.5473 22.4217L72.7348 18.5545L88.1645 8.28109L89.3754 26.7967L80.5864 22.4608Z" fill="#1ABC9C"/>
</svg>
