<svg width="100" height="100" viewBox="0 0 100 100" fill="none" xmlns="http://www.w3.org/2000/svg">
<path d="M97.0656 56.9876L89.4396 64.2996L90.2996 74.8316C90.4176 76.2696 89.5076 77.5856 88.1236 77.9876L77.9736 80.9136L73.8456 90.6376C73.2796 91.9656 71.8556 92.7216 70.4516 92.4216L60.0936 90.2996L51.9196 96.9896C51.3616 97.4456 50.6836 97.6736 50.0016 97.6736C49.3196 97.6736 48.6416 97.4456 48.0836 96.9896L39.9116 90.2996L29.5516 92.4216C28.1456 92.7256 26.7256 91.9636 26.1576 90.6376L22.0296 80.9136L11.8796 77.9876C10.4996 77.5856 9.58759 76.2696 9.70359 74.8316L10.5636 64.2996L2.93759 56.9876C1.89559 55.9916 1.70359 54.3976 2.47359 53.1836L8.13159 44.2596L4.77159 34.2396C4.31559 32.8736 4.88759 31.3756 6.13359 30.6576L15.2896 25.3776L16.9736 14.9496C17.2036 13.5256 18.4016 12.4636 19.8396 12.4056L30.3976 11.9896L36.7336 3.53561C37.6016 2.38561 39.1596 1.99961 40.4576 2.61961L49.9996 7.15961L59.5416 2.61961C60.8336 1.99761 62.3996 2.38361 63.2636 3.53561L69.6016 11.9896L80.1596 12.4056C81.5976 12.4636 82.7956 13.5256 83.0316 14.9476L84.7156 25.3756L93.8716 30.6556C95.1176 31.3736 95.6856 32.8716 95.2336 34.2376L91.8756 44.2576L97.5316 53.1816C98.2996 54.3976 98.1076 55.9916 97.0656 56.9876Z" stroke="#1ABC9C" stroke-width="3" stroke-miterlimit="10" stroke-linecap="round"/>
<path d="M31.4292 45.1476C31.0712 44.0096 30.9512 43.3516 30.9512 39.0396C30.9512 34.7276 31.0732 34.0696 31.4292 32.9316C32.3872 30.1176 34.9032 28.3216 38.3152 28.3216C41.7272 28.3216 44.2432 30.1176 45.1992 32.9316C45.5592 34.0696 45.6792 34.7276 45.6792 39.0396C45.6792 43.3496 45.5572 44.0096 45.1992 45.1476C44.2412 47.9616 41.7272 49.7576 38.3152 49.7576C34.9032 49.7576 32.3872 47.9616 31.4292 45.1476ZM41.5472 44.1896C41.7272 43.5916 41.8472 42.7516 41.8472 39.0396C41.8472 35.3276 41.7252 34.4896 41.5472 33.8896C41.0692 32.5136 39.8712 31.7936 38.3152 31.7936C36.7592 31.7936 35.5612 32.5116 35.0832 33.8896C34.9032 34.4876 34.7832 35.3276 34.7832 39.0396C34.7832 42.7516 34.9052 43.5896 35.0832 44.1896C35.5612 45.5656 36.7592 46.2856 38.3152 46.2856C39.8712 46.2856 41.0692 45.5676 41.5472 44.1896ZM59.5112 28.7416C59.7512 28.3236 59.9892 28.1436 60.4692 28.1436H63.3432C63.7032 28.1436 63.8212 28.4436 63.6432 28.7416L39.9912 69.5776C39.7532 69.9956 39.5132 70.1756 39.0932 70.1756H36.2192C35.8592 70.1756 35.6792 69.8776 35.8592 69.5776L59.5112 28.7416ZM53.8232 59.3396C53.8232 55.0276 53.9432 54.3696 54.3012 53.2296C55.2592 50.4156 57.7732 48.6196 61.1872 48.6196C64.5992 48.6196 67.1152 50.4156 68.0712 53.2296C68.4312 54.3676 68.5492 55.0256 68.5492 59.3396C68.5492 63.6476 68.4292 64.3076 68.0712 65.4456C67.1132 68.2596 64.5992 70.0576 61.1872 70.0576C57.7732 70.0576 55.2592 68.2616 54.3012 65.4456C53.9432 64.3076 53.8232 63.6476 53.8232 59.3396ZM61.1892 66.5836C62.7452 66.5836 63.9432 65.8656 64.4212 64.4876C64.6012 63.8896 64.7192 63.0496 64.7192 59.3396C64.7192 55.6276 64.5992 54.7896 64.4212 54.1896C63.9432 52.8136 62.7452 52.0936 61.1892 52.0936C59.6332 52.0936 58.4332 52.8116 57.9552 54.1896C57.7752 54.7896 57.6572 55.6276 57.6572 59.3396C57.6572 63.0496 57.7772 63.8896 57.9552 64.4876C58.4332 65.8656 59.6312 66.5836 61.1892 66.5836Z" fill="#1ABC9C"/>
</svg>
