<svg width="100" height="100" viewBox="0 0 100 100" fill="none" xmlns="http://www.w3.org/2000/svg">
<path d="M5 94.9325L13.2213 73.5586C8.56732 66.3677 6.11666 58.0452 6.11666 49.4454C6.11666 24.935 26.0517 5 50.5583 5C75.0612 5 95 24.935 95 49.4454C95 73.9483 75.0612 93.8871 50.5583 93.8871C42.1983 93.8871 34.0669 91.5376 26.9848 87.0934L5 94.9325ZM27.3932 83.5936L28.049 84.0207C34.7639 88.4087 42.5468 90.7282 50.5583 90.7282C73.3262 90.7282 91.8411 72.2133 91.8411 49.4454C91.8411 26.6775 73.3262 8.15513 50.5583 8.15513C27.7904 8.15513 9.2718 26.6775 9.2718 49.4454C9.2718 57.6967 11.7 65.6632 16.294 72.4869L16.7549 73.1689L10.4147 89.6527L27.3932 83.5936Z" fill="#1ABC9C"/>
<path d="M61.7465 71.5094C56.3768 71.5094 45.3751 65.1092 40.1327 59.8631C35.445 55.1754 28.4902 44.035 28.4902 38.2531C28.4902 32.4749 34.6581 26.041 38.8362 26.041H39.417L39.8555 26.4157C40.9646 27.36 46.5554 32.1639 47.6758 34.3485C49.2946 37.5037 45.3376 42.0228 43.2504 44.0912C44.1835 45.2678 46.3044 47.786 49.2572 50.7387C52.0413 53.5266 55.4363 55.0293 57.0138 55.6288C58.3853 54.2798 61.1845 51.8704 63.7438 51.8704L64.1185 51.9116L65.6736 52.335C67.8395 53.448 72.6396 59.0388 73.5764 60.1442L73.9511 60.5863V61.1634C73.9511 65.3453 67.5247 71.5094 61.7465 71.5094ZM38.3304 29.2599C35.8347 29.8594 31.6416 34.4497 31.6416 38.2531C31.6416 43.0308 38.128 53.3992 42.3623 57.6336C47.4735 62.7447 57.6171 68.3543 61.7465 68.3543C65.5499 68.3543 70.1365 64.1574 70.7285 61.6655C68.6264 59.2299 65.5837 55.9661 64.3696 55.2129L63.5902 55.0255C62.3311 55.1567 60.1128 56.8542 58.6214 58.4992L57.9506 59.2336L56.9951 58.9488C56.4143 58.7765 51.2019 57.1389 47.0238 52.9646C44.2884 50.2291 40.069 45.5639 39.7018 44.2524L39.4358 43.3118L40.1665 42.6561C43.0068 40.1042 45.3338 36.7018 44.8617 35.7875C44.2921 34.667 40.8635 31.4482 38.3304 29.2599Z" fill="#1ABC9C"/>
</svg>
