<svg width="100" height="100" viewBox="0 0 100 100" fill="none" xmlns="http://www.w3.org/2000/svg">
<path d="M92.0625 3H8.9375C7.36278 3 5.85255 3.62556 4.73905 4.73905C3.62556 5.85255 3 7.36278 3 8.9375L3 72.2708C3 73.8456 3.62556 75.3558 4.73905 76.4693C5.85255 77.5828 7.36278 78.2083 8.9375 78.2083H34.6667V86.6792L30.075 88.2031C29.6819 88.3359 29.3405 88.5889 29.099 88.9263C28.8575 89.2636 28.7281 89.6684 28.7292 90.0833V94.0417H24.7708V98H58.4167V94.0417H32.6875V91.5083L36.9625 90.0833H58.4167V86.125H38.625V78.2083H58.4167V74.25H8.9375C8.41259 74.25 7.90918 74.0415 7.53802 73.6703C7.16685 73.2991 6.95833 72.7957 6.95833 72.2708V60.3958H58.4167V56.4375H6.95833V8.9375C6.95833 8.41259 7.16685 7.90918 7.53802 7.53802C7.90918 7.16685 8.41259 6.95833 8.9375 6.95833H92.0625C92.5874 6.95833 93.0908 7.16685 93.462 7.53802C93.8331 7.90918 94.0417 8.41259 94.0417 8.9375V38.625H98V8.9375C98 7.36278 97.3744 5.85255 96.2609 4.73905C95.1474 3.62556 93.6372 3 92.0625 3V3Z" fill="#1ABC9C"/>
<path d="M94.0417 42.583H66.3333C65.2835 42.583 64.2767 43 63.5344 43.7424C62.792 44.4847 62.375 45.4915 62.375 46.5413V94.0413C62.375 95.0912 62.792 96.098 63.5344 96.8403C64.2767 97.5826 65.2835 97.9997 66.3333 97.9997H94.0417C95.0915 97.9997 96.0983 97.5826 96.8406 96.8403C97.583 96.098 98 95.0912 98 94.0413V46.5413C98 45.4915 97.583 44.4847 96.8406 43.7424C96.0983 43 95.0915 42.583 94.0417 42.583ZM94.0417 94.0413H66.3333V88.1038H94.0417V94.0413ZM94.0417 84.1455H66.3333V56.4372H94.0417V84.1455ZM94.0417 52.4788H66.3333V46.5413H94.0417V52.4788Z" fill="#1ABC9C"/>
</svg>
