<svg width="100" height="100" viewBox="0 0 100 100" fill="none" xmlns="http://www.w3.org/2000/svg">
<g clip-path="url(#clip0_209_347)">
<path d="M1.56299 8H1.60439H98.437C99.2961 8 100 8.70386 100 9.56299V9.60439V22.0255V22.0669V22.1083V90.8175C100 91.6766 99.2961 92.3805 98.437 92.3805H98.3956H1.56299C0.703861 92.3805 0 91.6766 0 90.8175V90.7761V22.1083V22.0669V22.0255V9.56299C0 8.70386 0.703861 8 1.56299 8ZM49.9948 57.9948C51.5061 57.9948 52.8724 58.6055 53.8661 59.5992C54.8494 60.5825 55.4704 61.9592 55.4704 63.4704C55.4704 64.9817 54.8597 66.348 53.8661 67.3417C53.2347 67.9731 52.448 68.4492 51.5578 68.7183V73.635C51.5578 74.4941 50.8539 75.198 49.9948 75.198C49.1357 75.198 48.4318 74.4941 48.4318 73.635V68.7183C47.552 68.4596 46.755 67.9731 46.1236 67.3417C45.1403 66.3583 44.5192 64.9817 44.5192 63.4704C44.5192 61.9592 45.1299 60.5929 46.1236 59.5992C47.1069 58.6159 48.4836 57.9948 49.9948 57.9948ZM51.651 61.8039C51.2266 61.3796 50.6366 61.1208 49.9948 61.1208C49.3531 61.1208 48.7631 61.3796 48.3387 61.8039C47.9143 62.2283 47.6555 62.8183 47.6555 63.4601C47.6555 64.1018 47.9143 64.6918 48.3387 65.1162C48.7424 65.5199 49.3013 65.789 49.9224 65.7994H49.9948H50.0673C50.6883 65.7787 51.2473 65.5199 51.651 65.1162C52.0754 64.6918 52.3341 64.1018 52.3341 63.4601C52.3341 62.8183 52.0754 62.2283 51.651 61.8039ZM49.2082 28.3085H50.7711C53.9903 28.3085 56.9196 29.623 59.0415 31.745L59.0519 31.7553C61.1738 33.8772 62.4884 36.8065 62.4884 40.0257V48.9585C63.5131 49.3001 64.424 49.8694 65.1692 50.6146L65.1796 50.625C66.4113 51.8567 67.1773 53.5543 67.1773 55.4174V74.6287C67.1773 76.4919 66.4113 78.1894 65.1796 79.4212L65.1692 79.4315C63.9375 80.6633 62.2399 81.4292 60.3768 81.4292H39.6025C37.7394 81.4292 36.0418 80.6633 34.8101 79.4315L34.7997 79.4212C33.568 78.1894 32.802 76.4919 32.802 74.6287V55.4174C32.802 53.5543 33.568 51.8567 34.7997 50.625L34.8101 50.6146C35.5553 49.8694 36.4766 49.2897 37.4909 48.9585V40.0257C37.4909 36.8065 38.8055 33.8772 40.9274 31.7553L40.9378 31.745C43.0597 29.623 45.989 28.3085 49.2082 28.3085ZM50.7711 31.4344H49.2082C46.8482 31.4344 44.6952 32.3971 43.1322 33.96C41.5795 35.5127 40.6066 37.6657 40.6066 40.036V48.6273H59.352V40.036C59.352 37.676 58.3894 35.523 56.8264 33.96C55.2738 32.4074 53.1208 31.4344 50.7504 31.4344H50.7711ZM60.3768 51.7429H39.6025H39.5508C38.5571 51.7532 37.6566 52.1673 37.0045 52.8194L36.9941 52.8297C36.3316 53.4922 35.9176 54.4134 35.9176 55.4174V74.6287C35.9176 75.6431 36.3316 76.5643 36.9941 77.2164L37.0045 77.2268C37.6669 77.8892 38.5881 78.3033 39.5922 78.3033H60.3664C61.3808 78.3033 62.302 77.8892 62.9541 77.2268L62.9645 77.2164C63.627 76.554 64.041 75.6327 64.041 74.6287V55.4174C64.041 54.4031 63.627 53.4818 62.9645 52.8297L62.9541 52.8194C62.302 52.1673 61.4015 51.7532 60.4078 51.7429H60.3561H60.3768ZM23.4344 14.2519H26.5604V17.3779H23.4344V14.2519ZM15.6195 14.2519H18.7455V17.3779H15.6195V14.2519ZM7.80457 14.2519H10.9305V17.3779H7.80457V14.2519ZM96.8637 23.6299H3.11562V89.2545H96.8637V23.6299ZM3.11562 20.5039H96.8637V11.1363H3.11562V20.5039Z" fill="#1ABC9C"/>
</g>
<defs>
<clipPath id="clip0_209_347">
<rect width="100" height="100" fill="white"/>
</clipPath>
</defs>
</svg>
