<svg width="103" height="100" viewBox="0 0 103 100" fill="none" xmlns="http://www.w3.org/2000/svg">
<path d="M64.8965 85.5273C77.599 85.5273 87.8965 75.2299 87.8965 62.5273C87.8965 49.8248 77.599 39.5273 64.8965 39.5273C52.1939 39.5273 41.8965 49.8248 41.8965 62.5273C41.8965 75.2299 52.1939 85.5273 64.8965 85.5273Z" stroke="#1ABC9C" stroke-width="3" stroke-miterlimit="10"/>
<path d="M80.7441 79.375L97.4231 96.054" stroke="#1ABC9C" stroke-width="3" stroke-linecap="round" stroke-linejoin="round"/>
<path d="M46.3594 86C38.2504 86 30.3234 83.5954 23.581 79.0903C16.8386 74.5851 11.5835 68.1818 8.48033 60.69C5.37714 53.1983 4.5652 44.9545 6.1472 37.0013C7.72919 29.0481 11.6341 21.7426 17.368 16.0086C23.102 10.2747 30.4075 6.36982 38.3607 4.78782C46.3139 3.20583 54.5576 4.01776 62.0494 7.12096C69.5412 10.2242 75.9445 15.4792 80.4496 22.2216C84.9548 28.9641 87.3594 36.891 87.3594 45" stroke="#1ABC9C" stroke-width="3" stroke-linecap="round" stroke-linejoin="round"/>
<path d="M46.3594 4V38.75" stroke="#1ABC9C" stroke-width="3" stroke-miterlimit="10" stroke-linecap="round"/>
<path d="M36.8391 65.835C29.0872 66.2296 21.4289 67.7094 14.0879 70.231" stroke="#1ABC9C" stroke-width="3" stroke-linecap="round" stroke-linejoin="round"/>
<path d="M14.0879 19.7695C21.5927 22.6452 33.2426 24.5003 46.3604 24.5003C59.4781 24.5003 71.128 22.6452 78.6329 19.7695" stroke="#1ABC9C" stroke-width="3" stroke-miterlimit="10"/>
<path d="M69.9831 33.5237C67.0049 16.4656 57.5558 4 46.3598 4C32.7736 4 21.7598 22.3563 21.7598 45C21.7598 67.6437 32.7736 86 46.3598 86" stroke="#1ABC9C" stroke-width="3" stroke-linecap="round" stroke-linejoin="round"/>
<path d="M40.8684 45H5" stroke="#1ABC9C" stroke-width="3" stroke-linecap="round" stroke-linejoin="round"/>
</svg>
